G75*
%MOIN*%
%OFA0B0*%
%FSLAX25Y25*%
%IPPOS*%
%LPD*%
%AMOC8*
5,1,8,0,0,1.08239X$1,22.5*
%
%ADD10C,0.00000*%
%ADD11R,0.01969X0.01575*%
%ADD12R,0.05512X0.02756*%
%ADD13R,0.01575X0.01969*%
%ADD14C,0.07000*%
%ADD15C,0.07000*%
%ADD16C,0.00709*%
%ADD17R,0.01772X0.01772*%
%ADD18C,0.02500*%
%ADD19R,0.02500X0.10000*%
%ADD20R,0.03150X0.06299*%
%ADD21R,0.01850X0.00827*%
%ADD22R,0.02756X0.01575*%
%ADD23R,0.00984X0.01575*%
%ADD24R,0.02756X0.02756*%
%ADD25C,0.04000*%
%ADD26C,0.00787*%
%ADD27C,0.02756*%
%ADD28C,0.03740*%
%ADD29R,0.03150X0.06693*%
%ADD30C,0.00492*%
%ADD31C,0.01200*%
%ADD32C,0.01476*%
%ADD33C,0.00892*%
%ADD34C,0.01600*%
%ADD35C,0.02400*%
%ADD36C,0.00295*%
%ADD37C,0.00500*%
%ADD38C,0.01000*%
%ADD39C,0.00800*%
%ADD40C,0.00984*%
D10*
X0008150Y0096576D02*
X0008150Y0196576D01*
X0068150Y0196576D01*
X0068150Y0096576D01*
X0008150Y0096576D01*
X0051181Y0182576D02*
X0051183Y0182664D01*
X0051189Y0182752D01*
X0051199Y0182840D01*
X0051213Y0182928D01*
X0051230Y0183014D01*
X0051252Y0183100D01*
X0051277Y0183184D01*
X0051307Y0183268D01*
X0051339Y0183350D01*
X0051376Y0183430D01*
X0051416Y0183509D01*
X0051460Y0183586D01*
X0051507Y0183661D01*
X0051557Y0183733D01*
X0051611Y0183804D01*
X0051667Y0183871D01*
X0051727Y0183937D01*
X0051789Y0183999D01*
X0051855Y0184059D01*
X0051922Y0184115D01*
X0051993Y0184169D01*
X0052065Y0184219D01*
X0052140Y0184266D01*
X0052217Y0184310D01*
X0052296Y0184350D01*
X0052376Y0184387D01*
X0052458Y0184419D01*
X0052542Y0184449D01*
X0052626Y0184474D01*
X0052712Y0184496D01*
X0052798Y0184513D01*
X0052886Y0184527D01*
X0052974Y0184537D01*
X0053062Y0184543D01*
X0053150Y0184545D01*
X0053238Y0184543D01*
X0053326Y0184537D01*
X0053414Y0184527D01*
X0053502Y0184513D01*
X0053588Y0184496D01*
X0053674Y0184474D01*
X0053758Y0184449D01*
X0053842Y0184419D01*
X0053924Y0184387D01*
X0054004Y0184350D01*
X0054083Y0184310D01*
X0054160Y0184266D01*
X0054235Y0184219D01*
X0054307Y0184169D01*
X0054378Y0184115D01*
X0054445Y0184059D01*
X0054511Y0183999D01*
X0054573Y0183937D01*
X0054633Y0183871D01*
X0054689Y0183804D01*
X0054743Y0183733D01*
X0054793Y0183661D01*
X0054840Y0183586D01*
X0054884Y0183509D01*
X0054924Y0183430D01*
X0054961Y0183350D01*
X0054993Y0183268D01*
X0055023Y0183184D01*
X0055048Y0183100D01*
X0055070Y0183014D01*
X0055087Y0182928D01*
X0055101Y0182840D01*
X0055111Y0182752D01*
X0055117Y0182664D01*
X0055119Y0182576D01*
X0055117Y0182488D01*
X0055111Y0182400D01*
X0055101Y0182312D01*
X0055087Y0182224D01*
X0055070Y0182138D01*
X0055048Y0182052D01*
X0055023Y0181968D01*
X0054993Y0181884D01*
X0054961Y0181802D01*
X0054924Y0181722D01*
X0054884Y0181643D01*
X0054840Y0181566D01*
X0054793Y0181491D01*
X0054743Y0181419D01*
X0054689Y0181348D01*
X0054633Y0181281D01*
X0054573Y0181215D01*
X0054511Y0181153D01*
X0054445Y0181093D01*
X0054378Y0181037D01*
X0054307Y0180983D01*
X0054235Y0180933D01*
X0054160Y0180886D01*
X0054083Y0180842D01*
X0054004Y0180802D01*
X0053924Y0180765D01*
X0053842Y0180733D01*
X0053758Y0180703D01*
X0053674Y0180678D01*
X0053588Y0180656D01*
X0053502Y0180639D01*
X0053414Y0180625D01*
X0053326Y0180615D01*
X0053238Y0180609D01*
X0053150Y0180607D01*
X0053062Y0180609D01*
X0052974Y0180615D01*
X0052886Y0180625D01*
X0052798Y0180639D01*
X0052712Y0180656D01*
X0052626Y0180678D01*
X0052542Y0180703D01*
X0052458Y0180733D01*
X0052376Y0180765D01*
X0052296Y0180802D01*
X0052217Y0180842D01*
X0052140Y0180886D01*
X0052065Y0180933D01*
X0051993Y0180983D01*
X0051922Y0181037D01*
X0051855Y0181093D01*
X0051789Y0181153D01*
X0051727Y0181215D01*
X0051667Y0181281D01*
X0051611Y0181348D01*
X0051557Y0181419D01*
X0051507Y0181491D01*
X0051460Y0181566D01*
X0051416Y0181643D01*
X0051376Y0181722D01*
X0051339Y0181802D01*
X0051307Y0181884D01*
X0051277Y0181968D01*
X0051252Y0182052D01*
X0051230Y0182138D01*
X0051213Y0182224D01*
X0051199Y0182312D01*
X0051189Y0182400D01*
X0051183Y0182488D01*
X0051181Y0182576D01*
X0051181Y0190576D02*
X0051183Y0190664D01*
X0051189Y0190752D01*
X0051199Y0190840D01*
X0051213Y0190928D01*
X0051230Y0191014D01*
X0051252Y0191100D01*
X0051277Y0191184D01*
X0051307Y0191268D01*
X0051339Y0191350D01*
X0051376Y0191430D01*
X0051416Y0191509D01*
X0051460Y0191586D01*
X0051507Y0191661D01*
X0051557Y0191733D01*
X0051611Y0191804D01*
X0051667Y0191871D01*
X0051727Y0191937D01*
X0051789Y0191999D01*
X0051855Y0192059D01*
X0051922Y0192115D01*
X0051993Y0192169D01*
X0052065Y0192219D01*
X0052140Y0192266D01*
X0052217Y0192310D01*
X0052296Y0192350D01*
X0052376Y0192387D01*
X0052458Y0192419D01*
X0052542Y0192449D01*
X0052626Y0192474D01*
X0052712Y0192496D01*
X0052798Y0192513D01*
X0052886Y0192527D01*
X0052974Y0192537D01*
X0053062Y0192543D01*
X0053150Y0192545D01*
X0053238Y0192543D01*
X0053326Y0192537D01*
X0053414Y0192527D01*
X0053502Y0192513D01*
X0053588Y0192496D01*
X0053674Y0192474D01*
X0053758Y0192449D01*
X0053842Y0192419D01*
X0053924Y0192387D01*
X0054004Y0192350D01*
X0054083Y0192310D01*
X0054160Y0192266D01*
X0054235Y0192219D01*
X0054307Y0192169D01*
X0054378Y0192115D01*
X0054445Y0192059D01*
X0054511Y0191999D01*
X0054573Y0191937D01*
X0054633Y0191871D01*
X0054689Y0191804D01*
X0054743Y0191733D01*
X0054793Y0191661D01*
X0054840Y0191586D01*
X0054884Y0191509D01*
X0054924Y0191430D01*
X0054961Y0191350D01*
X0054993Y0191268D01*
X0055023Y0191184D01*
X0055048Y0191100D01*
X0055070Y0191014D01*
X0055087Y0190928D01*
X0055101Y0190840D01*
X0055111Y0190752D01*
X0055117Y0190664D01*
X0055119Y0190576D01*
X0055117Y0190488D01*
X0055111Y0190400D01*
X0055101Y0190312D01*
X0055087Y0190224D01*
X0055070Y0190138D01*
X0055048Y0190052D01*
X0055023Y0189968D01*
X0054993Y0189884D01*
X0054961Y0189802D01*
X0054924Y0189722D01*
X0054884Y0189643D01*
X0054840Y0189566D01*
X0054793Y0189491D01*
X0054743Y0189419D01*
X0054689Y0189348D01*
X0054633Y0189281D01*
X0054573Y0189215D01*
X0054511Y0189153D01*
X0054445Y0189093D01*
X0054378Y0189037D01*
X0054307Y0188983D01*
X0054235Y0188933D01*
X0054160Y0188886D01*
X0054083Y0188842D01*
X0054004Y0188802D01*
X0053924Y0188765D01*
X0053842Y0188733D01*
X0053758Y0188703D01*
X0053674Y0188678D01*
X0053588Y0188656D01*
X0053502Y0188639D01*
X0053414Y0188625D01*
X0053326Y0188615D01*
X0053238Y0188609D01*
X0053150Y0188607D01*
X0053062Y0188609D01*
X0052974Y0188615D01*
X0052886Y0188625D01*
X0052798Y0188639D01*
X0052712Y0188656D01*
X0052626Y0188678D01*
X0052542Y0188703D01*
X0052458Y0188733D01*
X0052376Y0188765D01*
X0052296Y0188802D01*
X0052217Y0188842D01*
X0052140Y0188886D01*
X0052065Y0188933D01*
X0051993Y0188983D01*
X0051922Y0189037D01*
X0051855Y0189093D01*
X0051789Y0189153D01*
X0051727Y0189215D01*
X0051667Y0189281D01*
X0051611Y0189348D01*
X0051557Y0189419D01*
X0051507Y0189491D01*
X0051460Y0189566D01*
X0051416Y0189643D01*
X0051376Y0189722D01*
X0051339Y0189802D01*
X0051307Y0189884D01*
X0051277Y0189968D01*
X0051252Y0190052D01*
X0051230Y0190138D01*
X0051213Y0190224D01*
X0051199Y0190312D01*
X0051189Y0190400D01*
X0051183Y0190488D01*
X0051181Y0190576D01*
X0021181Y0186576D02*
X0021183Y0186664D01*
X0021189Y0186752D01*
X0021199Y0186840D01*
X0021213Y0186928D01*
X0021230Y0187014D01*
X0021252Y0187100D01*
X0021277Y0187184D01*
X0021307Y0187268D01*
X0021339Y0187350D01*
X0021376Y0187430D01*
X0021416Y0187509D01*
X0021460Y0187586D01*
X0021507Y0187661D01*
X0021557Y0187733D01*
X0021611Y0187804D01*
X0021667Y0187871D01*
X0021727Y0187937D01*
X0021789Y0187999D01*
X0021855Y0188059D01*
X0021922Y0188115D01*
X0021993Y0188169D01*
X0022065Y0188219D01*
X0022140Y0188266D01*
X0022217Y0188310D01*
X0022296Y0188350D01*
X0022376Y0188387D01*
X0022458Y0188419D01*
X0022542Y0188449D01*
X0022626Y0188474D01*
X0022712Y0188496D01*
X0022798Y0188513D01*
X0022886Y0188527D01*
X0022974Y0188537D01*
X0023062Y0188543D01*
X0023150Y0188545D01*
X0023238Y0188543D01*
X0023326Y0188537D01*
X0023414Y0188527D01*
X0023502Y0188513D01*
X0023588Y0188496D01*
X0023674Y0188474D01*
X0023758Y0188449D01*
X0023842Y0188419D01*
X0023924Y0188387D01*
X0024004Y0188350D01*
X0024083Y0188310D01*
X0024160Y0188266D01*
X0024235Y0188219D01*
X0024307Y0188169D01*
X0024378Y0188115D01*
X0024445Y0188059D01*
X0024511Y0187999D01*
X0024573Y0187937D01*
X0024633Y0187871D01*
X0024689Y0187804D01*
X0024743Y0187733D01*
X0024793Y0187661D01*
X0024840Y0187586D01*
X0024884Y0187509D01*
X0024924Y0187430D01*
X0024961Y0187350D01*
X0024993Y0187268D01*
X0025023Y0187184D01*
X0025048Y0187100D01*
X0025070Y0187014D01*
X0025087Y0186928D01*
X0025101Y0186840D01*
X0025111Y0186752D01*
X0025117Y0186664D01*
X0025119Y0186576D01*
X0025117Y0186488D01*
X0025111Y0186400D01*
X0025101Y0186312D01*
X0025087Y0186224D01*
X0025070Y0186138D01*
X0025048Y0186052D01*
X0025023Y0185968D01*
X0024993Y0185884D01*
X0024961Y0185802D01*
X0024924Y0185722D01*
X0024884Y0185643D01*
X0024840Y0185566D01*
X0024793Y0185491D01*
X0024743Y0185419D01*
X0024689Y0185348D01*
X0024633Y0185281D01*
X0024573Y0185215D01*
X0024511Y0185153D01*
X0024445Y0185093D01*
X0024378Y0185037D01*
X0024307Y0184983D01*
X0024235Y0184933D01*
X0024160Y0184886D01*
X0024083Y0184842D01*
X0024004Y0184802D01*
X0023924Y0184765D01*
X0023842Y0184733D01*
X0023758Y0184703D01*
X0023674Y0184678D01*
X0023588Y0184656D01*
X0023502Y0184639D01*
X0023414Y0184625D01*
X0023326Y0184615D01*
X0023238Y0184609D01*
X0023150Y0184607D01*
X0023062Y0184609D01*
X0022974Y0184615D01*
X0022886Y0184625D01*
X0022798Y0184639D01*
X0022712Y0184656D01*
X0022626Y0184678D01*
X0022542Y0184703D01*
X0022458Y0184733D01*
X0022376Y0184765D01*
X0022296Y0184802D01*
X0022217Y0184842D01*
X0022140Y0184886D01*
X0022065Y0184933D01*
X0021993Y0184983D01*
X0021922Y0185037D01*
X0021855Y0185093D01*
X0021789Y0185153D01*
X0021727Y0185215D01*
X0021667Y0185281D01*
X0021611Y0185348D01*
X0021557Y0185419D01*
X0021507Y0185491D01*
X0021460Y0185566D01*
X0021416Y0185643D01*
X0021376Y0185722D01*
X0021339Y0185802D01*
X0021307Y0185884D01*
X0021277Y0185968D01*
X0021252Y0186052D01*
X0021230Y0186138D01*
X0021213Y0186224D01*
X0021199Y0186312D01*
X0021189Y0186400D01*
X0021183Y0186488D01*
X0021181Y0186576D01*
D11*
X0043189Y0168623D03*
X0046339Y0168623D03*
X0046339Y0165473D03*
X0043189Y0165473D03*
X0054213Y0150513D03*
X0054213Y0147363D03*
X0045945Y0143426D03*
X0045945Y0140277D03*
X0036890Y0140670D03*
X0036890Y0137521D03*
X0036890Y0134371D03*
X0036890Y0131221D03*
X0047126Y0130828D03*
X0047126Y0127678D03*
X0051063Y0127678D03*
X0055000Y0127678D03*
X0055000Y0130828D03*
X0051063Y0130828D03*
X0030197Y0143426D03*
X0030197Y0146576D03*
X0021142Y0140670D03*
X0021142Y0137521D03*
X0021142Y0134371D03*
X0021142Y0131221D03*
X0056181Y0111930D03*
X0056181Y0108781D03*
X0056181Y0104844D03*
X0056181Y0101694D03*
D12*
X0052244Y0136536D03*
X0052244Y0143229D03*
D13*
X0033741Y0128072D03*
X0030591Y0128072D03*
X0028622Y0157206D03*
X0025473Y0157206D03*
X0023111Y0159962D03*
X0019961Y0159962D03*
X0025473Y0162718D03*
X0028622Y0162718D03*
D14*
X0013150Y0161576D02*
X0006150Y0161576D01*
X0006150Y0171576D02*
X0013150Y0171576D01*
X0013150Y0181576D02*
X0006150Y0181576D01*
X0006150Y0191576D02*
X0013150Y0191576D01*
X0063150Y0191576D02*
X0070150Y0191576D01*
X0070150Y0181576D02*
X0063150Y0181576D01*
X0063150Y0171576D02*
X0070150Y0171576D01*
X0070150Y0161576D02*
X0063150Y0161576D01*
X0063150Y0151576D02*
X0070150Y0151576D01*
X0070150Y0141576D02*
X0063150Y0141576D01*
X0063150Y0131576D02*
X0070150Y0131576D01*
X0070150Y0121576D02*
X0063150Y0121576D01*
X0063150Y0111576D02*
X0070150Y0111576D01*
X0070150Y0101576D02*
X0063150Y0101576D01*
X0013150Y0101576D02*
X0006150Y0101576D01*
X0006150Y0111576D02*
X0013150Y0111576D01*
X0013150Y0121576D02*
X0006150Y0121576D01*
X0006150Y0131576D02*
X0013150Y0131576D01*
X0013150Y0141576D02*
X0006150Y0141576D01*
X0006150Y0151576D02*
X0013150Y0151576D01*
D15*
X0008150Y0151576D03*
X0008150Y0141576D03*
X0008150Y0131576D03*
X0008150Y0121576D03*
X0008150Y0111576D03*
X0008150Y0101576D03*
X0068150Y0101576D03*
X0068150Y0111576D03*
X0068150Y0121576D03*
X0068150Y0131576D03*
X0068150Y0141576D03*
X0068150Y0151576D03*
X0068150Y0161576D03*
X0068150Y0171576D03*
X0068150Y0181576D03*
X0068150Y0191576D03*
X0008150Y0191576D03*
X0008150Y0181576D03*
X0008150Y0171576D03*
X0008150Y0161576D03*
D16*
X0020355Y0165867D03*
X0021930Y0165867D03*
X0023504Y0165867D03*
X0023504Y0167442D03*
X0021930Y0167442D03*
X0021930Y0169017D03*
X0023504Y0169017D03*
X0020355Y0169017D03*
X0020355Y0167442D03*
X0040040Y0161536D03*
X0040040Y0159962D03*
X0041615Y0159962D03*
X0043189Y0159962D03*
X0043189Y0161536D03*
X0041615Y0161536D03*
X0044764Y0161536D03*
X0044764Y0159962D03*
X0046339Y0159962D03*
X0046339Y0161536D03*
X0047914Y0161536D03*
X0047914Y0159962D03*
X0049489Y0159962D03*
X0049489Y0161536D03*
X0049489Y0158387D03*
X0049489Y0156812D03*
X0049489Y0155237D03*
X0049489Y0153662D03*
X0049489Y0152088D03*
X0049489Y0150513D03*
X0049489Y0148938D03*
X0047914Y0148938D03*
X0047914Y0150513D03*
X0047914Y0152088D03*
X0047914Y0153662D03*
X0046339Y0153662D03*
X0046339Y0152088D03*
X0044764Y0152088D03*
X0044764Y0153662D03*
X0043189Y0153662D03*
X0043189Y0152088D03*
X0041615Y0152088D03*
X0041615Y0153662D03*
X0040040Y0153662D03*
X0040040Y0152088D03*
X0040040Y0150513D03*
X0041615Y0150513D03*
X0043189Y0150513D03*
X0043189Y0148938D03*
X0041615Y0148938D03*
X0040040Y0148938D03*
X0044764Y0148938D03*
X0044764Y0150513D03*
X0046339Y0150513D03*
X0046339Y0148938D03*
X0046339Y0155237D03*
X0047914Y0155237D03*
X0047914Y0156812D03*
X0047914Y0158387D03*
X0046339Y0158387D03*
X0044764Y0158387D03*
X0043189Y0158387D03*
X0041615Y0158387D03*
X0041615Y0156812D03*
X0043189Y0156812D03*
X0043189Y0155237D03*
X0041615Y0155237D03*
X0040040Y0155237D03*
X0040040Y0156812D03*
X0040040Y0158387D03*
X0044764Y0156812D03*
X0044764Y0155237D03*
X0046339Y0156812D03*
X0032166Y0139095D03*
X0032166Y0137521D03*
X0030591Y0137521D03*
X0030591Y0139095D03*
X0029016Y0139095D03*
X0029016Y0137521D03*
X0027441Y0137521D03*
X0025867Y0137521D03*
X0025867Y0139095D03*
X0027441Y0139095D03*
X0027441Y0135946D03*
X0025867Y0135946D03*
X0025867Y0134371D03*
X0027441Y0134371D03*
X0027441Y0132796D03*
X0025867Y0132796D03*
X0029016Y0132796D03*
X0030591Y0132796D03*
X0032166Y0132796D03*
X0032166Y0134371D03*
X0032166Y0135946D03*
X0030591Y0135946D03*
X0029016Y0135946D03*
X0029016Y0134371D03*
X0030591Y0134371D03*
D17*
X0052477Y0123249D03*
X0055823Y0123249D03*
X0055823Y0119903D03*
X0052477Y0119903D03*
D18*
X0058386Y0136733D03*
X0019174Y0106418D03*
X0021693Y0192245D03*
D19*
X0028150Y0191576D03*
X0033150Y0191576D03*
X0038150Y0191576D03*
X0043150Y0191576D03*
X0048150Y0191576D03*
X0048150Y0176576D03*
X0043150Y0176576D03*
X0038150Y0176576D03*
X0033150Y0176576D03*
X0028150Y0176576D03*
D20*
X0026260Y0146182D03*
X0021536Y0146182D03*
X0021536Y0125710D03*
X0026260Y0125710D03*
D21*
X0025867Y0119529D03*
X0025867Y0116930D03*
D22*
X0021536Y0154253D03*
D23*
X0022422Y0157009D03*
X0020650Y0157009D03*
D24*
X0019961Y0119804D03*
X0019961Y0114292D03*
D25*
X0025158Y0103576D02*
X0025158Y0099576D01*
X0051142Y0099576D02*
X0051142Y0103576D01*
D26*
X0043662Y0114371D02*
X0042874Y0114371D01*
X0043662Y0114371D02*
X0043662Y0109843D01*
X0042874Y0109843D01*
X0042874Y0114371D01*
X0042874Y0110629D02*
X0043662Y0110629D01*
X0043662Y0111415D02*
X0042874Y0111415D01*
X0042874Y0112201D02*
X0043662Y0112201D01*
X0043662Y0112987D02*
X0042874Y0112987D01*
X0042874Y0113773D02*
X0043662Y0113773D01*
X0041103Y0114371D02*
X0040315Y0114371D01*
X0041103Y0114371D02*
X0041103Y0109843D01*
X0040315Y0109843D01*
X0040315Y0114371D01*
X0040315Y0110629D02*
X0041103Y0110629D01*
X0041103Y0111415D02*
X0040315Y0111415D01*
X0040315Y0112201D02*
X0041103Y0112201D01*
X0041103Y0112987D02*
X0040315Y0112987D01*
X0040315Y0113773D02*
X0041103Y0113773D01*
X0038544Y0114371D02*
X0037756Y0114371D01*
X0038544Y0114371D02*
X0038544Y0109843D01*
X0037756Y0109843D01*
X0037756Y0114371D01*
X0037756Y0110629D02*
X0038544Y0110629D01*
X0038544Y0111415D02*
X0037756Y0111415D01*
X0037756Y0112201D02*
X0038544Y0112201D01*
X0038544Y0112987D02*
X0037756Y0112987D01*
X0037756Y0113773D02*
X0038544Y0113773D01*
X0035985Y0114371D02*
X0035197Y0114371D01*
X0035985Y0114371D02*
X0035985Y0109843D01*
X0035197Y0109843D01*
X0035197Y0114371D01*
X0035197Y0110629D02*
X0035985Y0110629D01*
X0035985Y0111415D02*
X0035197Y0111415D01*
X0035197Y0112201D02*
X0035985Y0112201D01*
X0035985Y0112987D02*
X0035197Y0112987D01*
X0035197Y0113773D02*
X0035985Y0113773D01*
X0033426Y0114371D02*
X0032638Y0114371D01*
X0033426Y0114371D02*
X0033426Y0109843D01*
X0032638Y0109843D01*
X0032638Y0114371D01*
X0032638Y0110629D02*
X0033426Y0110629D01*
X0033426Y0111415D02*
X0032638Y0111415D01*
X0032638Y0112201D02*
X0033426Y0112201D01*
X0033426Y0112987D02*
X0032638Y0112987D01*
X0032638Y0113773D02*
X0033426Y0113773D01*
D27*
X0027323Y0112599D02*
X0027323Y0109843D01*
X0023781Y0109843D01*
X0023781Y0112599D01*
X0027323Y0112599D01*
X0027323Y0112598D02*
X0023781Y0112598D01*
X0052519Y0112599D02*
X0052519Y0109843D01*
X0048977Y0109843D01*
X0048977Y0112599D01*
X0052519Y0112599D01*
X0052519Y0112598D02*
X0048977Y0112598D01*
D28*
X0044744Y0099706D02*
X0041004Y0099706D01*
X0041004Y0103446D01*
X0044744Y0103446D01*
X0044744Y0099706D01*
X0044744Y0103445D02*
X0041004Y0103445D01*
X0035296Y0099706D02*
X0031556Y0099706D01*
X0031556Y0103446D01*
X0035296Y0103446D01*
X0035296Y0099706D01*
X0035296Y0103445D02*
X0031556Y0103445D01*
D29*
X0031457Y0120576D03*
X0044843Y0120576D03*
D30*
X0037284Y0121773D02*
X0037284Y0115080D01*
X0036496Y0115080D02*
X0036496Y0122166D01*
X0043189Y0128859D01*
X0043189Y0148938D01*
X0042402Y0148151D02*
X0042008Y0147757D01*
X0039646Y0147757D01*
X0038465Y0148938D01*
X0033741Y0148938D01*
X0027048Y0155631D01*
X0027048Y0158781D01*
X0025867Y0159962D01*
X0023111Y0159962D01*
X0022422Y0159273D01*
X0022422Y0157009D01*
X0020650Y0157009D02*
X0019174Y0155533D01*
X0019174Y0153269D01*
X0019961Y0152481D01*
X0029016Y0152481D01*
X0038465Y0143033D01*
X0038465Y0136340D01*
X0038071Y0135946D01*
X0032166Y0135946D01*
X0032166Y0137521D02*
X0033741Y0137521D01*
X0032166Y0139095D02*
X0034134Y0141064D01*
X0036496Y0141064D01*
X0036890Y0140670D01*
X0039252Y0143426D02*
X0036103Y0146576D01*
X0036103Y0147363D01*
X0038071Y0147363D02*
X0038071Y0145788D01*
X0040040Y0143820D01*
X0040040Y0134765D01*
X0041615Y0133190D01*
X0041615Y0135946D02*
X0041615Y0144214D01*
X0039646Y0146182D01*
X0040040Y0148938D02*
X0039252Y0149725D01*
X0034134Y0149725D01*
X0028622Y0155237D01*
X0028622Y0157206D01*
X0028622Y0162718D01*
X0028622Y0168623D01*
X0027048Y0170198D01*
X0025473Y0169017D02*
X0025473Y0181221D01*
X0029410Y0185158D01*
X0045630Y0185158D01*
X0048386Y0187914D01*
X0047993Y0188052D01*
X0049469Y0186576D01*
X0055158Y0186576D01*
X0056969Y0184765D01*
X0056969Y0180040D01*
X0055394Y0178466D01*
X0048150Y0176576D02*
X0048150Y0173190D01*
X0050276Y0171064D01*
X0050276Y0167836D01*
X0049489Y0167048D01*
X0045158Y0167048D01*
X0044764Y0166655D01*
X0044764Y0163111D01*
X0043977Y0162324D01*
X0044764Y0161536D02*
X0045552Y0160749D01*
X0046339Y0159962D02*
X0045552Y0159174D01*
X0045552Y0157599D02*
X0044764Y0156812D01*
X0043189Y0155237D02*
X0043977Y0154450D01*
X0044764Y0153662D02*
X0045552Y0152875D01*
X0046339Y0152088D02*
X0047126Y0151300D01*
X0046339Y0150513D02*
X0047126Y0149725D01*
X0047914Y0150513D01*
X0049489Y0150513D02*
X0051457Y0150513D01*
X0054213Y0150513D01*
X0055394Y0152088D02*
X0056575Y0153269D01*
X0055000Y0153662D02*
X0056575Y0155237D01*
X0056575Y0157206D02*
X0053819Y0154450D01*
X0050276Y0154450D01*
X0049489Y0155237D02*
X0052638Y0155237D01*
X0056575Y0159174D01*
X0057363Y0159174D01*
X0058150Y0159962D01*
X0057796Y0161576D02*
X0063150Y0161576D01*
X0057796Y0161576D02*
X0052244Y0156025D01*
X0050276Y0156025D01*
X0051063Y0156812D02*
X0049489Y0156812D01*
X0050276Y0157993D02*
X0058150Y0165867D01*
X0058150Y0168623D02*
X0056575Y0168623D01*
X0052638Y0164686D01*
X0052638Y0163111D01*
X0049489Y0159962D01*
X0049489Y0161536D02*
X0049489Y0162718D01*
X0058347Y0171576D01*
X0063150Y0171576D01*
X0063150Y0181576D02*
X0051654Y0170080D01*
X0051654Y0166064D01*
X0048701Y0163111D01*
X0047914Y0161536D02*
X0047126Y0160749D01*
X0046339Y0161536D02*
X0046339Y0165473D01*
X0043189Y0165473D02*
X0043189Y0161536D01*
X0042402Y0162324D02*
X0040827Y0163899D01*
X0040433Y0163899D01*
X0039252Y0165080D01*
X0039252Y0169017D01*
X0040433Y0170198D01*
X0044272Y0170198D01*
X0045650Y0171576D01*
X0045650Y0181576D01*
X0043150Y0182076D02*
X0042150Y0183076D01*
X0036890Y0183076D01*
X0035709Y0181895D01*
X0035709Y0171773D01*
X0032559Y0168623D01*
X0032559Y0159568D01*
X0035709Y0156418D01*
X0035709Y0155631D01*
X0037678Y0153662D01*
X0040040Y0153662D01*
X0039252Y0152875D02*
X0037284Y0152875D01*
X0031378Y0158781D01*
X0031378Y0170985D01*
X0033544Y0173151D01*
X0033544Y0175513D01*
X0033741Y0176103D01*
X0033150Y0176576D01*
X0038150Y0176576D02*
X0037678Y0172324D01*
X0033741Y0168387D01*
X0033741Y0160355D01*
X0036890Y0157206D01*
X0036890Y0155631D01*
X0038071Y0154450D01*
X0039252Y0154450D01*
X0039252Y0155237D02*
X0038465Y0156025D01*
X0039252Y0155237D02*
X0040040Y0155237D01*
X0040827Y0156025D02*
X0040040Y0156812D01*
X0039252Y0157599D02*
X0038465Y0157599D01*
X0035315Y0160749D01*
X0036890Y0160355D02*
X0038859Y0158387D01*
X0040040Y0158387D01*
X0039252Y0159174D02*
X0038465Y0159962D01*
X0038465Y0161143D01*
X0040040Y0161536D02*
X0036103Y0165473D01*
X0036103Y0168623D01*
X0037678Y0170198D01*
X0039252Y0170198D01*
X0040630Y0171576D01*
X0040650Y0171576D01*
X0040650Y0181576D01*
X0043150Y0182076D02*
X0043150Y0176576D01*
X0030197Y0170592D02*
X0028229Y0172560D01*
X0028229Y0173347D01*
X0028150Y0174056D01*
X0028150Y0176576D01*
X0023504Y0172954D02*
X0023504Y0181430D01*
X0027363Y0185288D01*
X0027363Y0187206D01*
X0028229Y0188702D01*
X0028150Y0189017D01*
X0028150Y0191576D01*
X0043150Y0191576D02*
X0043150Y0189076D01*
X0048150Y0189725D02*
X0048150Y0191576D01*
X0048150Y0194450D01*
X0048150Y0189725D02*
X0048386Y0187914D01*
X0023504Y0172954D02*
X0023504Y0169017D01*
X0021930Y0169017D02*
X0021930Y0171379D01*
X0020355Y0169017D02*
X0020355Y0175710D01*
X0018386Y0169017D02*
X0017205Y0167836D01*
X0017205Y0167048D01*
X0018386Y0165867D01*
X0020355Y0165867D01*
X0021930Y0165867D02*
X0021930Y0163505D01*
X0024685Y0163505D01*
X0025473Y0162718D01*
X0021930Y0163505D02*
X0019961Y0161536D01*
X0019961Y0159962D01*
X0020650Y0159273D01*
X0020650Y0157009D01*
X0021536Y0154253D02*
X0022520Y0154253D01*
X0025473Y0157206D01*
X0030197Y0154844D02*
X0030197Y0170592D01*
X0026654Y0167836D02*
X0025473Y0169017D01*
X0025079Y0167442D02*
X0023504Y0167442D01*
X0022717Y0166655D02*
X0021930Y0167442D01*
X0020355Y0167442D02*
X0018780Y0167442D01*
X0023504Y0165867D02*
X0025473Y0165867D01*
X0026654Y0167048D01*
X0026654Y0167836D01*
X0035315Y0164292D02*
X0036890Y0162718D01*
X0036890Y0160355D01*
X0041615Y0161536D02*
X0037678Y0165473D01*
X0037678Y0167048D01*
X0049489Y0158387D02*
X0054213Y0163111D01*
X0054213Y0164292D01*
X0054213Y0159962D02*
X0051063Y0156812D01*
X0049489Y0153662D02*
X0055000Y0153662D01*
X0055394Y0152088D02*
X0049489Y0152088D01*
X0047126Y0152875D02*
X0046339Y0153662D01*
X0045552Y0154450D02*
X0046339Y0155237D01*
X0042402Y0156025D02*
X0041615Y0155237D01*
X0040040Y0152088D02*
X0036890Y0152088D01*
X0033741Y0155237D01*
X0031772Y0155237D01*
X0030197Y0154844D02*
X0034528Y0150513D01*
X0040040Y0150513D01*
X0039252Y0151300D02*
X0035709Y0151300D01*
X0033347Y0153662D01*
X0030985Y0148544D02*
X0031772Y0147757D01*
X0031772Y0140277D01*
X0031378Y0139883D01*
X0030591Y0139883D02*
X0029804Y0140670D01*
X0029016Y0139883D01*
X0029016Y0139095D01*
X0029016Y0137521D02*
X0028229Y0136733D01*
X0027441Y0137521D01*
X0027441Y0139095D02*
X0027441Y0140277D01*
X0025867Y0141851D01*
X0024292Y0141851D01*
X0022323Y0143820D01*
X0022323Y0145395D01*
X0021536Y0146182D01*
X0018386Y0148544D02*
X0018386Y0143426D01*
X0019567Y0142245D01*
X0022323Y0142245D01*
X0024292Y0140277D01*
X0026260Y0140277D01*
X0026654Y0139883D01*
X0025867Y0139095D02*
X0022717Y0139095D01*
X0021142Y0140670D01*
X0020748Y0140670D01*
X0020355Y0140277D01*
X0021142Y0140670D02*
X0021536Y0140277D01*
X0021142Y0137521D02*
X0021930Y0137127D01*
X0024292Y0137521D02*
X0025867Y0135946D01*
X0027441Y0135946D02*
X0028229Y0135158D01*
X0029016Y0135946D01*
X0028229Y0135158D02*
X0027441Y0134371D01*
X0027441Y0132796D02*
X0027441Y0132009D01*
X0025473Y0130040D01*
X0024292Y0130040D01*
X0021930Y0127678D01*
X0021930Y0126103D01*
X0021536Y0125710D01*
X0026260Y0125710D02*
X0027048Y0126497D01*
X0027048Y0128072D01*
X0029016Y0130040D01*
X0029016Y0132796D01*
X0030591Y0132796D02*
X0030591Y0131221D01*
X0030591Y0132796D02*
X0030591Y0134371D01*
X0030591Y0135946D01*
X0030591Y0137521D01*
X0030591Y0139095D02*
X0030591Y0139883D01*
X0039252Y0143426D02*
X0039252Y0130040D01*
X0034528Y0125316D01*
X0037284Y0121773D02*
X0043977Y0128466D01*
X0043977Y0148151D01*
X0044764Y0148938D02*
X0045945Y0147757D01*
X0045945Y0145395D01*
X0045945Y0143426D01*
X0045945Y0140277D02*
X0045945Y0138308D01*
X0047914Y0139489D02*
X0049882Y0137521D01*
X0051260Y0137521D01*
X0052244Y0136536D01*
X0051457Y0133584D02*
X0052638Y0132403D01*
X0053426Y0132403D01*
X0055000Y0130828D01*
X0054607Y0130828D01*
X0051063Y0130828D02*
X0050670Y0130828D01*
X0045552Y0135946D01*
X0045552Y0133190D02*
X0045552Y0132009D01*
X0046733Y0130828D01*
X0047126Y0130828D01*
X0033741Y0134371D02*
X0032166Y0134371D01*
X0032166Y0132796D02*
X0032166Y0129647D01*
X0030591Y0128072D01*
X0025867Y0132796D02*
X0024685Y0131615D01*
X0021536Y0131615D02*
X0021142Y0131221D01*
X0021142Y0134371D02*
X0021930Y0134765D01*
X0047914Y0139489D02*
X0047914Y0148938D01*
X0049489Y0148938D02*
X0049489Y0144607D01*
X0049882Y0144214D01*
X0051260Y0144214D01*
X0052244Y0143229D01*
X0051457Y0147363D02*
X0054213Y0147363D01*
X0046339Y0148938D02*
X0045552Y0149725D01*
X0044764Y0150513D01*
D31*
X0036890Y0142639D02*
X0033347Y0146182D01*
X0030197Y0146576D02*
X0029016Y0147757D01*
X0029016Y0148544D01*
X0026260Y0146182D02*
X0027048Y0145395D01*
X0027048Y0143820D01*
X0027441Y0143426D01*
X0030197Y0143426D01*
X0029804Y0143033D01*
X0029804Y0140670D01*
X0034528Y0139489D02*
X0036496Y0137521D01*
X0036890Y0137521D01*
X0036890Y0140670D02*
X0036890Y0142639D01*
X0036890Y0134371D02*
X0033741Y0134371D01*
X0033741Y0131221D02*
X0036890Y0131221D01*
X0033741Y0131221D02*
X0033741Y0128072D01*
X0030591Y0128072D02*
X0030591Y0126497D01*
X0029804Y0125710D01*
X0024685Y0131615D02*
X0021536Y0131615D01*
X0021930Y0134765D02*
X0023111Y0135946D01*
X0021930Y0137127D01*
X0020355Y0140277D02*
X0018386Y0138308D01*
X0013150Y0141576D02*
X0008150Y0141576D01*
X0008150Y0151576D02*
X0013150Y0151576D01*
X0013150Y0161576D02*
X0008150Y0161576D01*
X0008150Y0171576D02*
X0013150Y0171576D01*
X0013150Y0181576D02*
X0008150Y0181576D01*
X0008150Y0191576D02*
X0013150Y0191576D01*
X0038150Y0191576D02*
X0038150Y0189076D01*
X0038150Y0191576D02*
X0040650Y0191576D01*
X0043150Y0191576D02*
X0045650Y0191576D01*
X0043150Y0189076D02*
X0043150Y0187875D01*
X0063150Y0191576D02*
X0068150Y0191576D01*
X0068150Y0181576D02*
X0063150Y0181576D01*
X0063150Y0171576D02*
X0068150Y0171576D01*
X0068150Y0161576D02*
X0063150Y0161576D01*
X0048701Y0165473D02*
X0046339Y0165473D01*
X0043189Y0165473D02*
X0040827Y0165473D01*
X0040827Y0168623D02*
X0043189Y0168623D01*
X0046339Y0168623D02*
X0048701Y0168623D01*
X0063150Y0151576D02*
X0068150Y0151576D01*
X0068150Y0141576D02*
X0063150Y0141576D01*
X0063150Y0131576D02*
X0068150Y0131576D01*
X0068150Y0121576D02*
X0063150Y0121576D01*
X0063150Y0111576D02*
X0068150Y0111576D01*
X0051142Y0111528D02*
X0051142Y0101576D01*
X0042874Y0101576D01*
X0038150Y0104725D01*
X0033426Y0101576D01*
X0025158Y0101576D01*
X0025158Y0111528D01*
X0025552Y0111221D01*
X0033032Y0112107D02*
X0033032Y0113820D01*
X0043268Y0114371D02*
X0043268Y0112107D01*
X0043445Y0111930D01*
X0045158Y0111930D01*
X0043268Y0114371D02*
X0044764Y0115867D01*
X0044764Y0120497D01*
X0044843Y0120576D01*
X0051142Y0111528D02*
X0050748Y0111221D01*
X0013150Y0111576D02*
X0008150Y0111576D01*
X0008150Y0121576D02*
X0013150Y0121576D01*
X0013150Y0131576D02*
X0008150Y0131576D01*
D32*
X0018386Y0125710D03*
X0024685Y0131615D03*
X0023111Y0135946D03*
X0024292Y0137521D03*
X0029804Y0140670D03*
X0034528Y0139489D03*
X0033741Y0137521D03*
X0033741Y0134371D03*
X0033741Y0131221D03*
X0041615Y0133190D03*
X0041615Y0135946D03*
X0045552Y0135946D03*
X0045945Y0138308D03*
X0045552Y0133190D03*
X0051457Y0133584D03*
X0043977Y0125316D03*
X0044764Y0115867D03*
X0045158Y0111930D03*
X0039650Y0108576D03*
X0036650Y0108576D03*
X0038150Y0104725D03*
X0056181Y0106812D03*
X0029804Y0125710D03*
X0045945Y0145395D03*
X0051457Y0147363D03*
X0051457Y0150513D03*
X0056575Y0153269D03*
X0056575Y0155237D03*
X0056575Y0157206D03*
X0058150Y0159962D03*
X0054213Y0159962D03*
X0054213Y0164292D03*
X0048701Y0165473D03*
X0048701Y0168623D03*
X0051743Y0172668D03*
X0055394Y0178466D03*
X0045650Y0181576D03*
X0040650Y0181576D03*
X0040650Y0191576D03*
X0045650Y0191576D03*
X0058150Y0189076D03*
X0030650Y0191576D03*
X0020355Y0175710D03*
X0023504Y0172954D03*
X0021930Y0171379D03*
X0027048Y0170198D03*
X0025079Y0167442D03*
X0018780Y0167442D03*
X0021930Y0163505D03*
X0031772Y0155237D03*
X0033347Y0153662D03*
X0038465Y0156025D03*
X0038465Y0161143D03*
X0035315Y0160749D03*
X0035315Y0164292D03*
X0037678Y0167048D03*
X0040827Y0165473D03*
X0040827Y0168623D03*
X0058150Y0168623D03*
X0058150Y0165867D03*
X0030985Y0148544D03*
X0029016Y0148544D03*
X0033347Y0146182D03*
X0036103Y0147363D03*
X0038071Y0147363D03*
X0039646Y0146182D03*
X0018386Y0148544D03*
D33*
X0028229Y0136733D03*
X0028229Y0135158D03*
X0045552Y0149725D03*
X0047126Y0149725D03*
X0047126Y0151300D03*
X0047126Y0152875D03*
X0045552Y0152875D03*
X0045552Y0154450D03*
X0043977Y0154450D03*
X0042402Y0156025D03*
X0040827Y0156025D03*
X0042402Y0152875D03*
X0045552Y0157599D03*
X0045552Y0159174D03*
X0045552Y0160749D03*
X0047126Y0160749D03*
X0048701Y0159174D03*
X0022717Y0166655D03*
D34*
X0018386Y0138308D02*
X0018386Y0125710D01*
X0018386Y0121379D01*
X0019961Y0119804D01*
X0020237Y0119529D01*
X0025867Y0119529D01*
X0026378Y0119529D01*
X0027048Y0120198D01*
X0025867Y0116930D02*
X0027323Y0115473D01*
X0031378Y0115473D01*
X0033032Y0113820D01*
X0019961Y0114292D02*
X0017244Y0111576D01*
X0013150Y0111576D01*
X0043977Y0125316D02*
X0047126Y0125316D01*
X0048701Y0123741D01*
X0055823Y0119903D02*
X0056181Y0119544D01*
X0056181Y0116261D01*
X0056181Y0111930D02*
X0056536Y0111576D01*
X0056181Y0108781D02*
X0056181Y0106812D01*
X0056181Y0104844D01*
X0056181Y0101694D02*
X0056300Y0101576D01*
D35*
X0063150Y0101576D01*
X0063150Y0111576D02*
X0056536Y0111576D01*
X0056181Y0111930D02*
X0056181Y0116261D01*
X0051063Y0116261D01*
X0048701Y0118623D01*
X0048701Y0123741D01*
D36*
X0029804Y0135158D02*
X0029804Y0137914D01*
X0030197Y0138308D01*
X0030985Y0138308D01*
X0031378Y0138702D01*
X0031378Y0139883D01*
X0026654Y0139883D02*
X0026654Y0135158D01*
X0025867Y0134371D01*
X0029016Y0134371D02*
X0029804Y0135158D01*
X0042402Y0148151D02*
X0042402Y0151300D01*
X0043189Y0152088D01*
X0042402Y0152875D02*
X0043977Y0152875D01*
X0044764Y0152088D01*
X0043189Y0153662D02*
X0042402Y0154450D01*
X0039252Y0154450D01*
X0039252Y0152875D02*
X0040827Y0152875D01*
X0041615Y0153662D01*
X0041615Y0152088D02*
X0040827Y0151300D01*
X0039252Y0151300D01*
X0043189Y0150513D02*
X0043977Y0149725D01*
X0043977Y0148151D01*
X0048701Y0154450D02*
X0050276Y0154450D01*
X0050276Y0156025D02*
X0047126Y0156025D01*
X0046339Y0156812D01*
X0047914Y0156812D02*
X0048701Y0157599D01*
X0049882Y0157599D01*
X0050276Y0157993D01*
X0048701Y0159174D02*
X0047126Y0159174D01*
X0046339Y0158387D01*
X0047914Y0159962D02*
X0048701Y0160749D01*
X0048701Y0163111D01*
X0043977Y0162324D02*
X0043977Y0156025D01*
X0044764Y0155237D01*
X0047914Y0155237D02*
X0048701Y0154450D01*
X0041615Y0156812D02*
X0040827Y0157599D01*
X0039252Y0157599D01*
X0039252Y0159174D02*
X0040827Y0159174D01*
X0041615Y0158387D01*
X0040040Y0159962D02*
X0040827Y0160749D01*
X0042008Y0160749D01*
X0042402Y0161143D01*
X0042402Y0162324D01*
D37*
X0051743Y0172668D02*
X0058150Y0179076D01*
X0058150Y0189076D01*
X0055000Y0127678D02*
X0055823Y0126855D01*
X0055823Y0123249D01*
X0052477Y0123249D02*
X0052477Y0126265D01*
X0051063Y0127678D01*
X0050670Y0124529D02*
X0047520Y0127678D01*
X0047126Y0127678D01*
X0050670Y0124529D02*
X0050670Y0121773D01*
X0052477Y0119966D01*
X0052477Y0119903D01*
X0038150Y0114214D02*
X0038150Y0112107D01*
X0038150Y0110076D01*
X0039650Y0108576D01*
X0038150Y0111064D02*
X0038150Y0112107D01*
X0038150Y0114214D02*
X0037284Y0115080D01*
X0036496Y0115080D02*
X0035591Y0114174D01*
X0035591Y0112107D01*
X0036103Y0111595D01*
X0036103Y0109123D01*
X0036650Y0108576D01*
X0031457Y0120576D02*
X0031457Y0122245D01*
X0034528Y0125316D01*
D38*
X0030591Y0128072D02*
X0030591Y0131221D01*
D39*
X0029804Y0125710D02*
X0029016Y0124922D01*
X0029016Y0122166D01*
X0027048Y0120198D01*
D40*
X0018386Y0169017D02*
X0018386Y0186340D01*
X0013150Y0191576D01*
M02*
