%
M48
M72
T01C0.00492
T02C0.00984
T03C0.02000
T04C0.03000
T05C0.03937
T06C0.04000
%
T01
X22717Y166655
X40827Y156025
X42402Y156025
X43977Y154450
X45552Y154450
X45552Y152875
X47126Y152875
X47126Y151300
X47126Y149725
X45552Y149725
X42402Y152875
X45552Y157599
X45552Y159174
X45552Y160749
X47126Y160749
X48701Y159174
X28229Y136733
X28229Y135158
T02
X36650Y108576
X39650Y108576
X38150Y104725
X45158Y111930
X44764Y115867
X43977Y125316
X33741Y131221
X33741Y134371
X33741Y137521
X34528Y139489
X29804Y140670
X24292Y137521
X23111Y135946
X24685Y131615
X29804Y125710
X18386Y125710
X41615Y133190
X41615Y135946
X45552Y135946
X45945Y138308
X45552Y133190
X51457Y133584
X45945Y145395
X51457Y147363
X51457Y150513
X56575Y153269
X56575Y155237
X56575Y157206
X58150Y159962
X54213Y159962
X54213Y164292
X48701Y165473
X48701Y168623
X51743Y172668
X55394Y178466
X45650Y181576
X40650Y181576
X40650Y191576
X45650Y191576
X58150Y189076
X30650Y191576
X20355Y175710
X23504Y172954
X21930Y171379
X27048Y170198
X25079Y167442
X18780Y167442
X21930Y163505
X31772Y155237
X33347Y153662
X38465Y156025
X38465Y161143
X35315Y160749
X35315Y164292
X37678Y167048
X40827Y165473
X40827Y168623
X58150Y168623
X58150Y165867
X30985Y148544
X29016Y148544
X33347Y146182
X36103Y147363
X38071Y147363
X39646Y146182
X18386Y148544
X56181Y106812
T03
X25158Y101576
X51142Y101576
T04
X8150Y191576
X8150Y181576
X8150Y171576
X8150Y161576
X8150Y151576
X8150Y141576
X8150Y131576
X8150Y121576
X8150Y111576
X8150Y101576
X68150Y101576
X68150Y111576
X68150Y121576
X68150Y131576
X68150Y141576
X68150Y151576
X68150Y161576
X68150Y171576
X68150Y181576
X68150Y191576
T05
X23150Y186576
X53150Y190576
X53150Y182576
T06
X13150Y191576
X13150Y181576
X13150Y171576
X13150Y161576
X13150Y151576
X13150Y141576
X13150Y131576
X13150Y121576
X13150Y111576
X13150Y101576
X63150Y101576
X63150Y111576
X63150Y121576
X63150Y131576
X63150Y141576
X63150Y151576
X63150Y161576
X63150Y171576
X63150Y181576
X63150Y191576
M30
