G75*
%MOIN*%
%OFA0B0*%
%FSLAX25Y25*%
%IPPOS*%
%LPD*%
%AMOC8*
5,1,8,0,0,1.08239X$1,22.5*
%
%ADD10C,0.00000*%
%ADD11C,0.07000*%
%ADD12C,0.07000*%
%ADD13C,0.03100*%
%ADD14C,0.03937*%
%ADD15R,0.02500X0.05000*%
%ADD16C,0.05906*%
%ADD17C,0.04000*%
D10*
X0008150Y0096576D02*
X0008150Y0196576D01*
X0068150Y0196576D01*
X0068150Y0096576D01*
X0008150Y0096576D01*
X0051181Y0182576D02*
X0051183Y0182664D01*
X0051189Y0182752D01*
X0051199Y0182840D01*
X0051213Y0182928D01*
X0051230Y0183014D01*
X0051252Y0183100D01*
X0051277Y0183184D01*
X0051307Y0183268D01*
X0051339Y0183350D01*
X0051376Y0183430D01*
X0051416Y0183509D01*
X0051460Y0183586D01*
X0051507Y0183661D01*
X0051557Y0183733D01*
X0051611Y0183804D01*
X0051667Y0183871D01*
X0051727Y0183937D01*
X0051789Y0183999D01*
X0051855Y0184059D01*
X0051922Y0184115D01*
X0051993Y0184169D01*
X0052065Y0184219D01*
X0052140Y0184266D01*
X0052217Y0184310D01*
X0052296Y0184350D01*
X0052376Y0184387D01*
X0052458Y0184419D01*
X0052542Y0184449D01*
X0052626Y0184474D01*
X0052712Y0184496D01*
X0052798Y0184513D01*
X0052886Y0184527D01*
X0052974Y0184537D01*
X0053062Y0184543D01*
X0053150Y0184545D01*
X0053238Y0184543D01*
X0053326Y0184537D01*
X0053414Y0184527D01*
X0053502Y0184513D01*
X0053588Y0184496D01*
X0053674Y0184474D01*
X0053758Y0184449D01*
X0053842Y0184419D01*
X0053924Y0184387D01*
X0054004Y0184350D01*
X0054083Y0184310D01*
X0054160Y0184266D01*
X0054235Y0184219D01*
X0054307Y0184169D01*
X0054378Y0184115D01*
X0054445Y0184059D01*
X0054511Y0183999D01*
X0054573Y0183937D01*
X0054633Y0183871D01*
X0054689Y0183804D01*
X0054743Y0183733D01*
X0054793Y0183661D01*
X0054840Y0183586D01*
X0054884Y0183509D01*
X0054924Y0183430D01*
X0054961Y0183350D01*
X0054993Y0183268D01*
X0055023Y0183184D01*
X0055048Y0183100D01*
X0055070Y0183014D01*
X0055087Y0182928D01*
X0055101Y0182840D01*
X0055111Y0182752D01*
X0055117Y0182664D01*
X0055119Y0182576D01*
X0055117Y0182488D01*
X0055111Y0182400D01*
X0055101Y0182312D01*
X0055087Y0182224D01*
X0055070Y0182138D01*
X0055048Y0182052D01*
X0055023Y0181968D01*
X0054993Y0181884D01*
X0054961Y0181802D01*
X0054924Y0181722D01*
X0054884Y0181643D01*
X0054840Y0181566D01*
X0054793Y0181491D01*
X0054743Y0181419D01*
X0054689Y0181348D01*
X0054633Y0181281D01*
X0054573Y0181215D01*
X0054511Y0181153D01*
X0054445Y0181093D01*
X0054378Y0181037D01*
X0054307Y0180983D01*
X0054235Y0180933D01*
X0054160Y0180886D01*
X0054083Y0180842D01*
X0054004Y0180802D01*
X0053924Y0180765D01*
X0053842Y0180733D01*
X0053758Y0180703D01*
X0053674Y0180678D01*
X0053588Y0180656D01*
X0053502Y0180639D01*
X0053414Y0180625D01*
X0053326Y0180615D01*
X0053238Y0180609D01*
X0053150Y0180607D01*
X0053062Y0180609D01*
X0052974Y0180615D01*
X0052886Y0180625D01*
X0052798Y0180639D01*
X0052712Y0180656D01*
X0052626Y0180678D01*
X0052542Y0180703D01*
X0052458Y0180733D01*
X0052376Y0180765D01*
X0052296Y0180802D01*
X0052217Y0180842D01*
X0052140Y0180886D01*
X0052065Y0180933D01*
X0051993Y0180983D01*
X0051922Y0181037D01*
X0051855Y0181093D01*
X0051789Y0181153D01*
X0051727Y0181215D01*
X0051667Y0181281D01*
X0051611Y0181348D01*
X0051557Y0181419D01*
X0051507Y0181491D01*
X0051460Y0181566D01*
X0051416Y0181643D01*
X0051376Y0181722D01*
X0051339Y0181802D01*
X0051307Y0181884D01*
X0051277Y0181968D01*
X0051252Y0182052D01*
X0051230Y0182138D01*
X0051213Y0182224D01*
X0051199Y0182312D01*
X0051189Y0182400D01*
X0051183Y0182488D01*
X0051181Y0182576D01*
X0051181Y0190576D02*
X0051183Y0190664D01*
X0051189Y0190752D01*
X0051199Y0190840D01*
X0051213Y0190928D01*
X0051230Y0191014D01*
X0051252Y0191100D01*
X0051277Y0191184D01*
X0051307Y0191268D01*
X0051339Y0191350D01*
X0051376Y0191430D01*
X0051416Y0191509D01*
X0051460Y0191586D01*
X0051507Y0191661D01*
X0051557Y0191733D01*
X0051611Y0191804D01*
X0051667Y0191871D01*
X0051727Y0191937D01*
X0051789Y0191999D01*
X0051855Y0192059D01*
X0051922Y0192115D01*
X0051993Y0192169D01*
X0052065Y0192219D01*
X0052140Y0192266D01*
X0052217Y0192310D01*
X0052296Y0192350D01*
X0052376Y0192387D01*
X0052458Y0192419D01*
X0052542Y0192449D01*
X0052626Y0192474D01*
X0052712Y0192496D01*
X0052798Y0192513D01*
X0052886Y0192527D01*
X0052974Y0192537D01*
X0053062Y0192543D01*
X0053150Y0192545D01*
X0053238Y0192543D01*
X0053326Y0192537D01*
X0053414Y0192527D01*
X0053502Y0192513D01*
X0053588Y0192496D01*
X0053674Y0192474D01*
X0053758Y0192449D01*
X0053842Y0192419D01*
X0053924Y0192387D01*
X0054004Y0192350D01*
X0054083Y0192310D01*
X0054160Y0192266D01*
X0054235Y0192219D01*
X0054307Y0192169D01*
X0054378Y0192115D01*
X0054445Y0192059D01*
X0054511Y0191999D01*
X0054573Y0191937D01*
X0054633Y0191871D01*
X0054689Y0191804D01*
X0054743Y0191733D01*
X0054793Y0191661D01*
X0054840Y0191586D01*
X0054884Y0191509D01*
X0054924Y0191430D01*
X0054961Y0191350D01*
X0054993Y0191268D01*
X0055023Y0191184D01*
X0055048Y0191100D01*
X0055070Y0191014D01*
X0055087Y0190928D01*
X0055101Y0190840D01*
X0055111Y0190752D01*
X0055117Y0190664D01*
X0055119Y0190576D01*
X0055117Y0190488D01*
X0055111Y0190400D01*
X0055101Y0190312D01*
X0055087Y0190224D01*
X0055070Y0190138D01*
X0055048Y0190052D01*
X0055023Y0189968D01*
X0054993Y0189884D01*
X0054961Y0189802D01*
X0054924Y0189722D01*
X0054884Y0189643D01*
X0054840Y0189566D01*
X0054793Y0189491D01*
X0054743Y0189419D01*
X0054689Y0189348D01*
X0054633Y0189281D01*
X0054573Y0189215D01*
X0054511Y0189153D01*
X0054445Y0189093D01*
X0054378Y0189037D01*
X0054307Y0188983D01*
X0054235Y0188933D01*
X0054160Y0188886D01*
X0054083Y0188842D01*
X0054004Y0188802D01*
X0053924Y0188765D01*
X0053842Y0188733D01*
X0053758Y0188703D01*
X0053674Y0188678D01*
X0053588Y0188656D01*
X0053502Y0188639D01*
X0053414Y0188625D01*
X0053326Y0188615D01*
X0053238Y0188609D01*
X0053150Y0188607D01*
X0053062Y0188609D01*
X0052974Y0188615D01*
X0052886Y0188625D01*
X0052798Y0188639D01*
X0052712Y0188656D01*
X0052626Y0188678D01*
X0052542Y0188703D01*
X0052458Y0188733D01*
X0052376Y0188765D01*
X0052296Y0188802D01*
X0052217Y0188842D01*
X0052140Y0188886D01*
X0052065Y0188933D01*
X0051993Y0188983D01*
X0051922Y0189037D01*
X0051855Y0189093D01*
X0051789Y0189153D01*
X0051727Y0189215D01*
X0051667Y0189281D01*
X0051611Y0189348D01*
X0051557Y0189419D01*
X0051507Y0189491D01*
X0051460Y0189566D01*
X0051416Y0189643D01*
X0051376Y0189722D01*
X0051339Y0189802D01*
X0051307Y0189884D01*
X0051277Y0189968D01*
X0051252Y0190052D01*
X0051230Y0190138D01*
X0051213Y0190224D01*
X0051199Y0190312D01*
X0051189Y0190400D01*
X0051183Y0190488D01*
X0051181Y0190576D01*
X0021181Y0186576D02*
X0021183Y0186664D01*
X0021189Y0186752D01*
X0021199Y0186840D01*
X0021213Y0186928D01*
X0021230Y0187014D01*
X0021252Y0187100D01*
X0021277Y0187184D01*
X0021307Y0187268D01*
X0021339Y0187350D01*
X0021376Y0187430D01*
X0021416Y0187509D01*
X0021460Y0187586D01*
X0021507Y0187661D01*
X0021557Y0187733D01*
X0021611Y0187804D01*
X0021667Y0187871D01*
X0021727Y0187937D01*
X0021789Y0187999D01*
X0021855Y0188059D01*
X0021922Y0188115D01*
X0021993Y0188169D01*
X0022065Y0188219D01*
X0022140Y0188266D01*
X0022217Y0188310D01*
X0022296Y0188350D01*
X0022376Y0188387D01*
X0022458Y0188419D01*
X0022542Y0188449D01*
X0022626Y0188474D01*
X0022712Y0188496D01*
X0022798Y0188513D01*
X0022886Y0188527D01*
X0022974Y0188537D01*
X0023062Y0188543D01*
X0023150Y0188545D01*
X0023238Y0188543D01*
X0023326Y0188537D01*
X0023414Y0188527D01*
X0023502Y0188513D01*
X0023588Y0188496D01*
X0023674Y0188474D01*
X0023758Y0188449D01*
X0023842Y0188419D01*
X0023924Y0188387D01*
X0024004Y0188350D01*
X0024083Y0188310D01*
X0024160Y0188266D01*
X0024235Y0188219D01*
X0024307Y0188169D01*
X0024378Y0188115D01*
X0024445Y0188059D01*
X0024511Y0187999D01*
X0024573Y0187937D01*
X0024633Y0187871D01*
X0024689Y0187804D01*
X0024743Y0187733D01*
X0024793Y0187661D01*
X0024840Y0187586D01*
X0024884Y0187509D01*
X0024924Y0187430D01*
X0024961Y0187350D01*
X0024993Y0187268D01*
X0025023Y0187184D01*
X0025048Y0187100D01*
X0025070Y0187014D01*
X0025087Y0186928D01*
X0025101Y0186840D01*
X0025111Y0186752D01*
X0025117Y0186664D01*
X0025119Y0186576D01*
X0025117Y0186488D01*
X0025111Y0186400D01*
X0025101Y0186312D01*
X0025087Y0186224D01*
X0025070Y0186138D01*
X0025048Y0186052D01*
X0025023Y0185968D01*
X0024993Y0185884D01*
X0024961Y0185802D01*
X0024924Y0185722D01*
X0024884Y0185643D01*
X0024840Y0185566D01*
X0024793Y0185491D01*
X0024743Y0185419D01*
X0024689Y0185348D01*
X0024633Y0185281D01*
X0024573Y0185215D01*
X0024511Y0185153D01*
X0024445Y0185093D01*
X0024378Y0185037D01*
X0024307Y0184983D01*
X0024235Y0184933D01*
X0024160Y0184886D01*
X0024083Y0184842D01*
X0024004Y0184802D01*
X0023924Y0184765D01*
X0023842Y0184733D01*
X0023758Y0184703D01*
X0023674Y0184678D01*
X0023588Y0184656D01*
X0023502Y0184639D01*
X0023414Y0184625D01*
X0023326Y0184615D01*
X0023238Y0184609D01*
X0023150Y0184607D01*
X0023062Y0184609D01*
X0022974Y0184615D01*
X0022886Y0184625D01*
X0022798Y0184639D01*
X0022712Y0184656D01*
X0022626Y0184678D01*
X0022542Y0184703D01*
X0022458Y0184733D01*
X0022376Y0184765D01*
X0022296Y0184802D01*
X0022217Y0184842D01*
X0022140Y0184886D01*
X0022065Y0184933D01*
X0021993Y0184983D01*
X0021922Y0185037D01*
X0021855Y0185093D01*
X0021789Y0185153D01*
X0021727Y0185215D01*
X0021667Y0185281D01*
X0021611Y0185348D01*
X0021557Y0185419D01*
X0021507Y0185491D01*
X0021460Y0185566D01*
X0021416Y0185643D01*
X0021376Y0185722D01*
X0021339Y0185802D01*
X0021307Y0185884D01*
X0021277Y0185968D01*
X0021252Y0186052D01*
X0021230Y0186138D01*
X0021213Y0186224D01*
X0021199Y0186312D01*
X0021189Y0186400D01*
X0021183Y0186488D01*
X0021181Y0186576D01*
D11*
X0013150Y0191576D02*
X0006150Y0191576D01*
X0006150Y0181576D02*
X0013150Y0181576D01*
X0013150Y0171576D02*
X0006150Y0171576D01*
X0006150Y0161576D02*
X0013150Y0161576D01*
X0013150Y0151576D02*
X0006150Y0151576D01*
X0006150Y0141576D02*
X0013150Y0141576D01*
X0013150Y0131576D02*
X0006150Y0131576D01*
X0006150Y0121576D02*
X0013150Y0121576D01*
X0013150Y0111576D02*
X0006150Y0111576D01*
X0006150Y0101576D02*
X0013150Y0101576D01*
X0063150Y0101576D02*
X0070150Y0101576D01*
X0070150Y0111576D02*
X0063150Y0111576D01*
X0063150Y0121576D02*
X0070150Y0121576D01*
X0070150Y0131576D02*
X0063150Y0131576D01*
X0063150Y0141576D02*
X0070150Y0141576D01*
X0070150Y0151576D02*
X0063150Y0151576D01*
X0063150Y0161576D02*
X0070150Y0161576D01*
X0070150Y0171576D02*
X0063150Y0171576D01*
X0063150Y0181576D02*
X0070150Y0181576D01*
X0070150Y0191576D02*
X0063150Y0191576D01*
D12*
X0068150Y0191576D03*
X0068150Y0181576D03*
X0068150Y0171576D03*
X0068150Y0161576D03*
X0068150Y0151576D03*
X0068150Y0141576D03*
X0068150Y0131576D03*
X0068150Y0121576D03*
X0068150Y0111576D03*
X0068150Y0101576D03*
X0008150Y0101576D03*
X0008150Y0111576D03*
X0008150Y0121576D03*
X0008150Y0131576D03*
X0008150Y0141576D03*
X0008150Y0151576D03*
X0008150Y0161576D03*
X0008150Y0171576D03*
X0008150Y0181576D03*
X0008150Y0191576D03*
D13*
X0028150Y0189076D03*
X0033150Y0189076D03*
X0038150Y0189076D03*
X0043150Y0189076D03*
X0048150Y0189076D03*
X0048150Y0184076D03*
X0043150Y0184076D03*
X0038150Y0184076D03*
X0033150Y0184076D03*
X0028150Y0184076D03*
D14*
X0023150Y0186576D03*
X0053150Y0190576D03*
X0053150Y0182576D03*
D15*
X0048150Y0194076D03*
X0043150Y0194076D03*
X0038150Y0194076D03*
X0033150Y0194076D03*
X0028150Y0194076D03*
X0033150Y0099076D03*
X0043150Y0099076D03*
D16*
X0043150Y0106576D03*
X0033150Y0106576D03*
D17*
X0025158Y0103576D02*
X0025158Y0099576D01*
X0051142Y0099576D02*
X0051142Y0103576D01*
M02*
