G75*
%MOIN*%
%OFA0B0*%
%FSLAX25Y25*%
%IPPOS*%
%LPD*%
%AMOC8*
5,1,8,0,0,1.08239X$1,22.5*
%
%ADD10C,0.00000*%
%ADD11C,0.06000*%
%ADD12C,0.05000*%
%ADD13C,0.04000*%
%ADD14C,0.01476*%
%ADD15C,0.00892*%
%ADD16C,0.00709*%
D10*
X0008150Y0096576D02*
X0008150Y0196576D01*
X0068150Y0196576D01*
X0068150Y0096576D01*
X0008150Y0096576D01*
X0051181Y0182576D02*
X0051183Y0182664D01*
X0051189Y0182752D01*
X0051199Y0182840D01*
X0051213Y0182928D01*
X0051230Y0183014D01*
X0051252Y0183100D01*
X0051277Y0183184D01*
X0051307Y0183268D01*
X0051339Y0183350D01*
X0051376Y0183430D01*
X0051416Y0183509D01*
X0051460Y0183586D01*
X0051507Y0183661D01*
X0051557Y0183733D01*
X0051611Y0183804D01*
X0051667Y0183871D01*
X0051727Y0183937D01*
X0051789Y0183999D01*
X0051855Y0184059D01*
X0051922Y0184115D01*
X0051993Y0184169D01*
X0052065Y0184219D01*
X0052140Y0184266D01*
X0052217Y0184310D01*
X0052296Y0184350D01*
X0052376Y0184387D01*
X0052458Y0184419D01*
X0052542Y0184449D01*
X0052626Y0184474D01*
X0052712Y0184496D01*
X0052798Y0184513D01*
X0052886Y0184527D01*
X0052974Y0184537D01*
X0053062Y0184543D01*
X0053150Y0184545D01*
X0053238Y0184543D01*
X0053326Y0184537D01*
X0053414Y0184527D01*
X0053502Y0184513D01*
X0053588Y0184496D01*
X0053674Y0184474D01*
X0053758Y0184449D01*
X0053842Y0184419D01*
X0053924Y0184387D01*
X0054004Y0184350D01*
X0054083Y0184310D01*
X0054160Y0184266D01*
X0054235Y0184219D01*
X0054307Y0184169D01*
X0054378Y0184115D01*
X0054445Y0184059D01*
X0054511Y0183999D01*
X0054573Y0183937D01*
X0054633Y0183871D01*
X0054689Y0183804D01*
X0054743Y0183733D01*
X0054793Y0183661D01*
X0054840Y0183586D01*
X0054884Y0183509D01*
X0054924Y0183430D01*
X0054961Y0183350D01*
X0054993Y0183268D01*
X0055023Y0183184D01*
X0055048Y0183100D01*
X0055070Y0183014D01*
X0055087Y0182928D01*
X0055101Y0182840D01*
X0055111Y0182752D01*
X0055117Y0182664D01*
X0055119Y0182576D01*
X0055117Y0182488D01*
X0055111Y0182400D01*
X0055101Y0182312D01*
X0055087Y0182224D01*
X0055070Y0182138D01*
X0055048Y0182052D01*
X0055023Y0181968D01*
X0054993Y0181884D01*
X0054961Y0181802D01*
X0054924Y0181722D01*
X0054884Y0181643D01*
X0054840Y0181566D01*
X0054793Y0181491D01*
X0054743Y0181419D01*
X0054689Y0181348D01*
X0054633Y0181281D01*
X0054573Y0181215D01*
X0054511Y0181153D01*
X0054445Y0181093D01*
X0054378Y0181037D01*
X0054307Y0180983D01*
X0054235Y0180933D01*
X0054160Y0180886D01*
X0054083Y0180842D01*
X0054004Y0180802D01*
X0053924Y0180765D01*
X0053842Y0180733D01*
X0053758Y0180703D01*
X0053674Y0180678D01*
X0053588Y0180656D01*
X0053502Y0180639D01*
X0053414Y0180625D01*
X0053326Y0180615D01*
X0053238Y0180609D01*
X0053150Y0180607D01*
X0053062Y0180609D01*
X0052974Y0180615D01*
X0052886Y0180625D01*
X0052798Y0180639D01*
X0052712Y0180656D01*
X0052626Y0180678D01*
X0052542Y0180703D01*
X0052458Y0180733D01*
X0052376Y0180765D01*
X0052296Y0180802D01*
X0052217Y0180842D01*
X0052140Y0180886D01*
X0052065Y0180933D01*
X0051993Y0180983D01*
X0051922Y0181037D01*
X0051855Y0181093D01*
X0051789Y0181153D01*
X0051727Y0181215D01*
X0051667Y0181281D01*
X0051611Y0181348D01*
X0051557Y0181419D01*
X0051507Y0181491D01*
X0051460Y0181566D01*
X0051416Y0181643D01*
X0051376Y0181722D01*
X0051339Y0181802D01*
X0051307Y0181884D01*
X0051277Y0181968D01*
X0051252Y0182052D01*
X0051230Y0182138D01*
X0051213Y0182224D01*
X0051199Y0182312D01*
X0051189Y0182400D01*
X0051183Y0182488D01*
X0051181Y0182576D01*
X0051181Y0190576D02*
X0051183Y0190664D01*
X0051189Y0190752D01*
X0051199Y0190840D01*
X0051213Y0190928D01*
X0051230Y0191014D01*
X0051252Y0191100D01*
X0051277Y0191184D01*
X0051307Y0191268D01*
X0051339Y0191350D01*
X0051376Y0191430D01*
X0051416Y0191509D01*
X0051460Y0191586D01*
X0051507Y0191661D01*
X0051557Y0191733D01*
X0051611Y0191804D01*
X0051667Y0191871D01*
X0051727Y0191937D01*
X0051789Y0191999D01*
X0051855Y0192059D01*
X0051922Y0192115D01*
X0051993Y0192169D01*
X0052065Y0192219D01*
X0052140Y0192266D01*
X0052217Y0192310D01*
X0052296Y0192350D01*
X0052376Y0192387D01*
X0052458Y0192419D01*
X0052542Y0192449D01*
X0052626Y0192474D01*
X0052712Y0192496D01*
X0052798Y0192513D01*
X0052886Y0192527D01*
X0052974Y0192537D01*
X0053062Y0192543D01*
X0053150Y0192545D01*
X0053238Y0192543D01*
X0053326Y0192537D01*
X0053414Y0192527D01*
X0053502Y0192513D01*
X0053588Y0192496D01*
X0053674Y0192474D01*
X0053758Y0192449D01*
X0053842Y0192419D01*
X0053924Y0192387D01*
X0054004Y0192350D01*
X0054083Y0192310D01*
X0054160Y0192266D01*
X0054235Y0192219D01*
X0054307Y0192169D01*
X0054378Y0192115D01*
X0054445Y0192059D01*
X0054511Y0191999D01*
X0054573Y0191937D01*
X0054633Y0191871D01*
X0054689Y0191804D01*
X0054743Y0191733D01*
X0054793Y0191661D01*
X0054840Y0191586D01*
X0054884Y0191509D01*
X0054924Y0191430D01*
X0054961Y0191350D01*
X0054993Y0191268D01*
X0055023Y0191184D01*
X0055048Y0191100D01*
X0055070Y0191014D01*
X0055087Y0190928D01*
X0055101Y0190840D01*
X0055111Y0190752D01*
X0055117Y0190664D01*
X0055119Y0190576D01*
X0055117Y0190488D01*
X0055111Y0190400D01*
X0055101Y0190312D01*
X0055087Y0190224D01*
X0055070Y0190138D01*
X0055048Y0190052D01*
X0055023Y0189968D01*
X0054993Y0189884D01*
X0054961Y0189802D01*
X0054924Y0189722D01*
X0054884Y0189643D01*
X0054840Y0189566D01*
X0054793Y0189491D01*
X0054743Y0189419D01*
X0054689Y0189348D01*
X0054633Y0189281D01*
X0054573Y0189215D01*
X0054511Y0189153D01*
X0054445Y0189093D01*
X0054378Y0189037D01*
X0054307Y0188983D01*
X0054235Y0188933D01*
X0054160Y0188886D01*
X0054083Y0188842D01*
X0054004Y0188802D01*
X0053924Y0188765D01*
X0053842Y0188733D01*
X0053758Y0188703D01*
X0053674Y0188678D01*
X0053588Y0188656D01*
X0053502Y0188639D01*
X0053414Y0188625D01*
X0053326Y0188615D01*
X0053238Y0188609D01*
X0053150Y0188607D01*
X0053062Y0188609D01*
X0052974Y0188615D01*
X0052886Y0188625D01*
X0052798Y0188639D01*
X0052712Y0188656D01*
X0052626Y0188678D01*
X0052542Y0188703D01*
X0052458Y0188733D01*
X0052376Y0188765D01*
X0052296Y0188802D01*
X0052217Y0188842D01*
X0052140Y0188886D01*
X0052065Y0188933D01*
X0051993Y0188983D01*
X0051922Y0189037D01*
X0051855Y0189093D01*
X0051789Y0189153D01*
X0051727Y0189215D01*
X0051667Y0189281D01*
X0051611Y0189348D01*
X0051557Y0189419D01*
X0051507Y0189491D01*
X0051460Y0189566D01*
X0051416Y0189643D01*
X0051376Y0189722D01*
X0051339Y0189802D01*
X0051307Y0189884D01*
X0051277Y0189968D01*
X0051252Y0190052D01*
X0051230Y0190138D01*
X0051213Y0190224D01*
X0051199Y0190312D01*
X0051189Y0190400D01*
X0051183Y0190488D01*
X0051181Y0190576D01*
X0021181Y0186576D02*
X0021183Y0186664D01*
X0021189Y0186752D01*
X0021199Y0186840D01*
X0021213Y0186928D01*
X0021230Y0187014D01*
X0021252Y0187100D01*
X0021277Y0187184D01*
X0021307Y0187268D01*
X0021339Y0187350D01*
X0021376Y0187430D01*
X0021416Y0187509D01*
X0021460Y0187586D01*
X0021507Y0187661D01*
X0021557Y0187733D01*
X0021611Y0187804D01*
X0021667Y0187871D01*
X0021727Y0187937D01*
X0021789Y0187999D01*
X0021855Y0188059D01*
X0021922Y0188115D01*
X0021993Y0188169D01*
X0022065Y0188219D01*
X0022140Y0188266D01*
X0022217Y0188310D01*
X0022296Y0188350D01*
X0022376Y0188387D01*
X0022458Y0188419D01*
X0022542Y0188449D01*
X0022626Y0188474D01*
X0022712Y0188496D01*
X0022798Y0188513D01*
X0022886Y0188527D01*
X0022974Y0188537D01*
X0023062Y0188543D01*
X0023150Y0188545D01*
X0023238Y0188543D01*
X0023326Y0188537D01*
X0023414Y0188527D01*
X0023502Y0188513D01*
X0023588Y0188496D01*
X0023674Y0188474D01*
X0023758Y0188449D01*
X0023842Y0188419D01*
X0023924Y0188387D01*
X0024004Y0188350D01*
X0024083Y0188310D01*
X0024160Y0188266D01*
X0024235Y0188219D01*
X0024307Y0188169D01*
X0024378Y0188115D01*
X0024445Y0188059D01*
X0024511Y0187999D01*
X0024573Y0187937D01*
X0024633Y0187871D01*
X0024689Y0187804D01*
X0024743Y0187733D01*
X0024793Y0187661D01*
X0024840Y0187586D01*
X0024884Y0187509D01*
X0024924Y0187430D01*
X0024961Y0187350D01*
X0024993Y0187268D01*
X0025023Y0187184D01*
X0025048Y0187100D01*
X0025070Y0187014D01*
X0025087Y0186928D01*
X0025101Y0186840D01*
X0025111Y0186752D01*
X0025117Y0186664D01*
X0025119Y0186576D01*
X0025117Y0186488D01*
X0025111Y0186400D01*
X0025101Y0186312D01*
X0025087Y0186224D01*
X0025070Y0186138D01*
X0025048Y0186052D01*
X0025023Y0185968D01*
X0024993Y0185884D01*
X0024961Y0185802D01*
X0024924Y0185722D01*
X0024884Y0185643D01*
X0024840Y0185566D01*
X0024793Y0185491D01*
X0024743Y0185419D01*
X0024689Y0185348D01*
X0024633Y0185281D01*
X0024573Y0185215D01*
X0024511Y0185153D01*
X0024445Y0185093D01*
X0024378Y0185037D01*
X0024307Y0184983D01*
X0024235Y0184933D01*
X0024160Y0184886D01*
X0024083Y0184842D01*
X0024004Y0184802D01*
X0023924Y0184765D01*
X0023842Y0184733D01*
X0023758Y0184703D01*
X0023674Y0184678D01*
X0023588Y0184656D01*
X0023502Y0184639D01*
X0023414Y0184625D01*
X0023326Y0184615D01*
X0023238Y0184609D01*
X0023150Y0184607D01*
X0023062Y0184609D01*
X0022974Y0184615D01*
X0022886Y0184625D01*
X0022798Y0184639D01*
X0022712Y0184656D01*
X0022626Y0184678D01*
X0022542Y0184703D01*
X0022458Y0184733D01*
X0022376Y0184765D01*
X0022296Y0184802D01*
X0022217Y0184842D01*
X0022140Y0184886D01*
X0022065Y0184933D01*
X0021993Y0184983D01*
X0021922Y0185037D01*
X0021855Y0185093D01*
X0021789Y0185153D01*
X0021727Y0185215D01*
X0021667Y0185281D01*
X0021611Y0185348D01*
X0021557Y0185419D01*
X0021507Y0185491D01*
X0021460Y0185566D01*
X0021416Y0185643D01*
X0021376Y0185722D01*
X0021339Y0185802D01*
X0021307Y0185884D01*
X0021277Y0185968D01*
X0021252Y0186052D01*
X0021230Y0186138D01*
X0021213Y0186224D01*
X0021199Y0186312D01*
X0021189Y0186400D01*
X0021183Y0186488D01*
X0021181Y0186576D01*
D11*
X0013150Y0191576D03*
X0013150Y0181576D03*
X0013150Y0171576D03*
X0013150Y0161576D03*
X0013150Y0151576D03*
X0013150Y0141576D03*
X0013150Y0131576D03*
X0013150Y0121576D03*
X0013150Y0111576D03*
X0013150Y0101576D03*
X0063150Y0101576D03*
X0063150Y0111576D03*
X0063150Y0121576D03*
X0063150Y0131576D03*
X0063150Y0141576D03*
X0063150Y0151576D03*
X0063150Y0161576D03*
X0063150Y0171576D03*
X0063150Y0181576D03*
X0063150Y0191576D03*
D12*
X0068150Y0191576D03*
X0068150Y0181576D03*
X0068150Y0171576D03*
X0068150Y0161576D03*
X0068150Y0151576D03*
X0068150Y0141576D03*
X0068150Y0131576D03*
X0068150Y0121576D03*
X0068150Y0111576D03*
X0068150Y0101576D03*
X0008150Y0101576D03*
X0008150Y0111576D03*
X0008150Y0121576D03*
X0008150Y0131576D03*
X0008150Y0141576D03*
X0008150Y0151576D03*
X0008150Y0161576D03*
X0008150Y0171576D03*
X0008150Y0181576D03*
X0008150Y0191576D03*
D13*
X0025158Y0101576D03*
X0051142Y0101576D03*
D14*
X0056181Y0106812D03*
X0045158Y0111930D03*
X0044764Y0115867D03*
X0039650Y0108576D03*
X0036650Y0108576D03*
X0038150Y0104725D03*
X0043977Y0125316D03*
X0033741Y0131221D03*
X0033741Y0134371D03*
X0033741Y0137521D03*
X0034528Y0139489D03*
X0029804Y0140670D03*
X0024292Y0137521D03*
X0023111Y0135946D03*
X0024685Y0131615D03*
X0029804Y0125710D03*
X0018386Y0125710D03*
X0041615Y0133190D03*
X0041615Y0135946D03*
X0045552Y0135946D03*
X0045945Y0138308D03*
X0045552Y0133190D03*
X0051457Y0133584D03*
X0045945Y0145395D03*
X0051457Y0147363D03*
X0051457Y0150513D03*
X0056575Y0153269D03*
X0056575Y0155237D03*
X0056575Y0157206D03*
X0058150Y0159962D03*
X0054213Y0159962D03*
X0054213Y0164292D03*
X0048701Y0165473D03*
X0048701Y0168623D03*
X0051743Y0172668D03*
X0055394Y0178466D03*
X0045650Y0181576D03*
X0040650Y0181576D03*
X0040650Y0191576D03*
X0045650Y0191576D03*
X0058150Y0189076D03*
X0030650Y0191576D03*
X0020355Y0175710D03*
X0023504Y0172954D03*
X0021930Y0171379D03*
X0027048Y0170198D03*
X0025079Y0167442D03*
X0018780Y0167442D03*
X0021930Y0163505D03*
X0031772Y0155237D03*
X0033347Y0153662D03*
X0038465Y0156025D03*
X0038465Y0161143D03*
X0035315Y0160749D03*
X0035315Y0164292D03*
X0037678Y0167048D03*
X0040827Y0165473D03*
X0040827Y0168623D03*
X0058150Y0168623D03*
X0058150Y0165867D03*
X0030985Y0148544D03*
X0029016Y0148544D03*
X0033347Y0146182D03*
X0036103Y0147363D03*
X0038071Y0147363D03*
X0039646Y0146182D03*
X0018386Y0148544D03*
D15*
X0028229Y0136733D03*
X0028229Y0135158D03*
X0045552Y0149725D03*
X0047126Y0149725D03*
X0047126Y0151300D03*
X0047126Y0152875D03*
X0045552Y0152875D03*
X0045552Y0154450D03*
X0043977Y0154450D03*
X0042402Y0156025D03*
X0040827Y0156025D03*
X0042402Y0152875D03*
X0045552Y0157599D03*
X0045552Y0159174D03*
X0045552Y0160749D03*
X0047126Y0160749D03*
X0048701Y0159174D03*
X0022717Y0166655D03*
D16*
X0023463Y0165879D02*
X0036912Y0165879D01*
X0037111Y0165680D02*
X0036309Y0166482D01*
X0036309Y0167615D01*
X0037111Y0168416D01*
X0038244Y0168416D01*
X0039046Y0167615D01*
X0039046Y0166482D01*
X0038244Y0165680D01*
X0037111Y0165680D01*
X0036371Y0165172D02*
X0039459Y0165172D01*
X0039459Y0164907D02*
X0040260Y0164105D01*
X0041394Y0164105D01*
X0042195Y0164907D01*
X0042195Y0166040D01*
X0041394Y0166842D01*
X0040260Y0166842D01*
X0039459Y0166040D01*
X0039459Y0164907D01*
X0039901Y0164464D02*
X0036683Y0164464D01*
X0036683Y0164859D02*
X0035882Y0165660D01*
X0034749Y0165660D01*
X0033947Y0164859D01*
X0033947Y0163726D01*
X0034749Y0162924D01*
X0035882Y0162924D01*
X0036683Y0163726D01*
X0036683Y0164859D01*
X0036683Y0163757D02*
X0052845Y0163757D01*
X0052845Y0163726D02*
X0053646Y0162924D01*
X0054780Y0162924D01*
X0055581Y0163726D01*
X0055581Y0164859D01*
X0054780Y0165660D01*
X0053646Y0165660D01*
X0052845Y0164859D01*
X0052845Y0163726D01*
X0052845Y0164464D02*
X0049627Y0164464D01*
X0049268Y0164105D02*
X0050069Y0164907D01*
X0050069Y0166040D01*
X0049268Y0166842D01*
X0048134Y0166842D01*
X0047333Y0166040D01*
X0047333Y0164907D01*
X0048134Y0164105D01*
X0049268Y0164105D01*
X0050069Y0165172D02*
X0053157Y0165172D01*
X0055269Y0165172D02*
X0056911Y0165172D01*
X0056782Y0165300D02*
X0057583Y0164499D01*
X0058717Y0164499D01*
X0059518Y0165300D01*
X0059518Y0166434D01*
X0058717Y0167235D01*
X0057583Y0167235D01*
X0056782Y0166434D01*
X0056782Y0165300D01*
X0056782Y0165879D02*
X0050069Y0165879D01*
X0049523Y0166586D02*
X0056934Y0166586D01*
X0057583Y0167255D02*
X0058717Y0167255D01*
X0059518Y0168056D01*
X0059518Y0169190D01*
X0058717Y0169991D01*
X0057583Y0169991D01*
X0056782Y0169190D01*
X0056782Y0168056D01*
X0057583Y0167255D01*
X0057545Y0167293D02*
X0049306Y0167293D01*
X0049268Y0167255D02*
X0050069Y0168056D01*
X0050069Y0169190D01*
X0049268Y0169991D01*
X0048134Y0169991D01*
X0047333Y0169190D01*
X0047333Y0168056D01*
X0048134Y0167255D01*
X0049268Y0167255D01*
X0050013Y0168000D02*
X0056838Y0168000D01*
X0056782Y0168707D02*
X0050069Y0168707D01*
X0049844Y0169415D02*
X0057007Y0169415D01*
X0059293Y0169415D02*
X0060178Y0169415D01*
X0060073Y0169520D02*
X0061094Y0168499D01*
X0062428Y0167946D01*
X0063872Y0167946D01*
X0065206Y0168499D01*
X0066004Y0169296D01*
X0066296Y0169004D01*
X0066296Y0164148D01*
X0066004Y0163856D01*
X0065206Y0164653D01*
X0063872Y0165206D01*
X0062428Y0165206D01*
X0061094Y0164653D01*
X0060073Y0163632D01*
X0059520Y0162298D01*
X0059520Y0160854D01*
X0060073Y0159520D01*
X0061094Y0158499D01*
X0062428Y0157946D01*
X0063872Y0157946D01*
X0065206Y0158499D01*
X0066004Y0159296D01*
X0066296Y0159004D01*
X0066296Y0154148D01*
X0066004Y0153856D01*
X0065206Y0154653D01*
X0063872Y0155206D01*
X0062428Y0155206D01*
X0061094Y0154653D01*
X0060073Y0153632D01*
X0059520Y0152298D01*
X0059520Y0150854D01*
X0060073Y0149520D01*
X0061094Y0148499D01*
X0062428Y0147946D01*
X0063872Y0147946D01*
X0065206Y0148499D01*
X0066004Y0149296D01*
X0066296Y0149004D01*
X0066296Y0144148D01*
X0066004Y0143856D01*
X0065206Y0144653D01*
X0063872Y0145206D01*
X0062428Y0145206D01*
X0061094Y0144653D01*
X0060073Y0143632D01*
X0059520Y0142298D01*
X0059520Y0140854D01*
X0060073Y0139520D01*
X0061094Y0138499D01*
X0062428Y0137946D01*
X0063872Y0137946D01*
X0065206Y0138499D01*
X0066004Y0139296D01*
X0066296Y0139004D01*
X0066296Y0134148D01*
X0066004Y0133856D01*
X0065206Y0134653D01*
X0063872Y0135206D01*
X0062428Y0135206D01*
X0061094Y0134653D01*
X0060073Y0133632D01*
X0059520Y0132298D01*
X0059520Y0130854D01*
X0060073Y0129520D01*
X0061094Y0128499D01*
X0062428Y0127946D01*
X0063872Y0127946D01*
X0065206Y0128499D01*
X0066004Y0129296D01*
X0066296Y0129004D01*
X0066296Y0124148D01*
X0066004Y0123856D01*
X0065206Y0124653D01*
X0063872Y0125206D01*
X0062428Y0125206D01*
X0061094Y0124653D01*
X0060073Y0123632D01*
X0059520Y0122298D01*
X0059520Y0120854D01*
X0060073Y0119520D01*
X0061094Y0118499D01*
X0062428Y0117946D01*
X0063872Y0117946D01*
X0065206Y0118499D01*
X0066004Y0119296D01*
X0066296Y0119004D01*
X0066296Y0114148D01*
X0066004Y0113856D01*
X0065206Y0114653D01*
X0063872Y0115206D01*
X0062428Y0115206D01*
X0061094Y0114653D01*
X0060073Y0113632D01*
X0059520Y0112298D01*
X0059520Y0110854D01*
X0060073Y0109520D01*
X0061094Y0108499D01*
X0062428Y0107946D01*
X0063872Y0107946D01*
X0065206Y0108499D01*
X0066004Y0109296D01*
X0066296Y0109004D01*
X0066296Y0104972D01*
X0066065Y0104818D01*
X0065987Y0104897D01*
X0065432Y0105300D01*
X0064821Y0105611D01*
X0064170Y0105823D01*
X0063504Y0105928D01*
X0063504Y0101930D01*
X0062796Y0101930D01*
X0062796Y0105928D01*
X0062130Y0105823D01*
X0061479Y0105611D01*
X0060868Y0105300D01*
X0060313Y0104897D01*
X0059829Y0104412D01*
X0059426Y0103858D01*
X0059115Y0103247D01*
X0058903Y0102595D01*
X0058798Y0101930D01*
X0062796Y0101930D01*
X0062796Y0101221D01*
X0058798Y0101221D01*
X0058903Y0100556D01*
X0059115Y0099904D01*
X0059426Y0099294D01*
X0059829Y0098739D01*
X0060138Y0098430D01*
X0015041Y0098430D01*
X0015206Y0098499D01*
X0016227Y0099520D01*
X0016780Y0100854D01*
X0016780Y0102298D01*
X0016227Y0103632D01*
X0015206Y0104653D01*
X0013872Y0105206D01*
X0012428Y0105206D01*
X0011094Y0104653D01*
X0010296Y0103856D01*
X0010004Y0104148D01*
X0010004Y0109004D01*
X0010296Y0109296D01*
X0011094Y0108499D01*
X0012428Y0107946D01*
X0013872Y0107946D01*
X0015206Y0108499D01*
X0016227Y0109520D01*
X0016780Y0110854D01*
X0016780Y0112298D01*
X0016227Y0113632D01*
X0015206Y0114653D01*
X0013872Y0115206D01*
X0012428Y0115206D01*
X0011094Y0114653D01*
X0010296Y0113856D01*
X0010004Y0114148D01*
X0010004Y0119004D01*
X0010296Y0119296D01*
X0011094Y0118499D01*
X0012428Y0117946D01*
X0013872Y0117946D01*
X0015206Y0118499D01*
X0016227Y0119520D01*
X0016780Y0120854D01*
X0016780Y0122298D01*
X0016227Y0123632D01*
X0015206Y0124653D01*
X0013872Y0125206D01*
X0012428Y0125206D01*
X0011094Y0124653D01*
X0010296Y0123856D01*
X0010004Y0124148D01*
X0010004Y0129004D01*
X0010296Y0129296D01*
X0011094Y0128499D01*
X0012428Y0127946D01*
X0013872Y0127946D01*
X0015206Y0128499D01*
X0016227Y0129520D01*
X0016780Y0130854D01*
X0016780Y0132298D01*
X0016227Y0133632D01*
X0015206Y0134653D01*
X0013872Y0135206D01*
X0012428Y0135206D01*
X0011094Y0134653D01*
X0010296Y0133856D01*
X0010004Y0134148D01*
X0010004Y0139004D01*
X0010296Y0139296D01*
X0011094Y0138499D01*
X0012428Y0137946D01*
X0013872Y0137946D01*
X0015206Y0138499D01*
X0016227Y0139520D01*
X0016780Y0140854D01*
X0016780Y0142298D01*
X0016227Y0143632D01*
X0015206Y0144653D01*
X0013872Y0145206D01*
X0012428Y0145206D01*
X0011094Y0144653D01*
X0010296Y0143856D01*
X0010004Y0144148D01*
X0010004Y0149004D01*
X0010296Y0149296D01*
X0011094Y0148499D01*
X0012428Y0147946D01*
X0013872Y0147946D01*
X0015206Y0148499D01*
X0016227Y0149520D01*
X0016780Y0150854D01*
X0016780Y0152298D01*
X0016227Y0153632D01*
X0015206Y0154653D01*
X0013872Y0155206D01*
X0012428Y0155206D01*
X0011094Y0154653D01*
X0010296Y0153856D01*
X0010004Y0154148D01*
X0010004Y0159004D01*
X0010296Y0159296D01*
X0011094Y0158499D01*
X0012428Y0157946D01*
X0013872Y0157946D01*
X0015206Y0158499D01*
X0016227Y0159520D01*
X0016780Y0160854D01*
X0016780Y0162298D01*
X0016227Y0163632D01*
X0015206Y0164653D01*
X0013872Y0165206D01*
X0012428Y0165206D01*
X0011094Y0164653D01*
X0010296Y0163856D01*
X0010004Y0164148D01*
X0010004Y0169004D01*
X0010296Y0169296D01*
X0011094Y0168499D01*
X0012428Y0167946D01*
X0013872Y0167946D01*
X0015206Y0168499D01*
X0016227Y0169520D01*
X0016780Y0170854D01*
X0016780Y0172298D01*
X0016227Y0173632D01*
X0015206Y0174653D01*
X0013872Y0175206D01*
X0012428Y0175206D01*
X0011094Y0174653D01*
X0010296Y0173856D01*
X0010004Y0174148D01*
X0010004Y0179004D01*
X0010296Y0179296D01*
X0011094Y0178499D01*
X0012428Y0177946D01*
X0013872Y0177946D01*
X0015206Y0178499D01*
X0016227Y0179520D01*
X0016780Y0180854D01*
X0016780Y0182298D01*
X0016227Y0183632D01*
X0015206Y0184653D01*
X0013872Y0185206D01*
X0012428Y0185206D01*
X0011094Y0184653D01*
X0010296Y0183856D01*
X0010004Y0184148D01*
X0010004Y0189004D01*
X0010296Y0189296D01*
X0011094Y0188499D01*
X0012428Y0187946D01*
X0013872Y0187946D01*
X0015206Y0188499D01*
X0016227Y0189520D01*
X0016780Y0190854D01*
X0016780Y0192298D01*
X0016227Y0193632D01*
X0015206Y0194653D01*
X0015041Y0194721D01*
X0061259Y0194721D01*
X0061094Y0194653D01*
X0060073Y0193632D01*
X0059520Y0192298D01*
X0059520Y0190854D01*
X0060073Y0189520D01*
X0061094Y0188499D01*
X0062428Y0187946D01*
X0063872Y0187946D01*
X0065206Y0188499D01*
X0066004Y0189296D01*
X0066296Y0189004D01*
X0066296Y0184148D01*
X0066004Y0183856D01*
X0065206Y0184653D01*
X0063872Y0185206D01*
X0062428Y0185206D01*
X0061094Y0184653D01*
X0060073Y0183632D01*
X0059520Y0182298D01*
X0059520Y0180854D01*
X0060073Y0179520D01*
X0061094Y0178499D01*
X0062428Y0177946D01*
X0063872Y0177946D01*
X0065206Y0178499D01*
X0066004Y0179296D01*
X0066296Y0179004D01*
X0066296Y0174148D01*
X0066004Y0173856D01*
X0065206Y0174653D01*
X0063872Y0175206D01*
X0062428Y0175206D01*
X0061094Y0174653D01*
X0060073Y0173632D01*
X0059520Y0172298D01*
X0059520Y0170854D01*
X0060073Y0169520D01*
X0059823Y0170122D02*
X0028416Y0170122D01*
X0028416Y0169631D02*
X0027614Y0168830D01*
X0026481Y0168830D01*
X0025680Y0169631D01*
X0025680Y0170765D01*
X0026481Y0171566D01*
X0027614Y0171566D01*
X0028416Y0170765D01*
X0028416Y0169631D01*
X0028199Y0169415D02*
X0039684Y0169415D01*
X0039459Y0169190D02*
X0039459Y0168056D01*
X0040260Y0167255D01*
X0041394Y0167255D01*
X0042195Y0168056D01*
X0042195Y0169190D01*
X0041394Y0169991D01*
X0040260Y0169991D01*
X0039459Y0169190D01*
X0039459Y0168707D02*
X0025748Y0168707D01*
X0025646Y0168810D02*
X0024512Y0168810D01*
X0023711Y0168009D01*
X0023711Y0167182D01*
X0023163Y0167731D01*
X0022271Y0167731D01*
X0021641Y0167100D01*
X0021641Y0166209D01*
X0022271Y0165579D01*
X0023163Y0165579D01*
X0023793Y0166209D01*
X0023793Y0166793D01*
X0024512Y0166074D01*
X0025646Y0166074D01*
X0026447Y0166875D01*
X0026447Y0168009D01*
X0025646Y0168810D01*
X0025896Y0169415D02*
X0016122Y0169415D01*
X0016477Y0170122D02*
X0021252Y0170122D01*
X0021363Y0170011D02*
X0022496Y0170011D01*
X0023298Y0170812D01*
X0023298Y0171586D01*
X0024071Y0171586D01*
X0024872Y0172387D01*
X0024872Y0173520D01*
X0024071Y0174322D01*
X0022938Y0174322D01*
X0022136Y0173520D01*
X0022136Y0172747D01*
X0021363Y0172747D01*
X0020561Y0171946D01*
X0020561Y0170812D01*
X0021363Y0170011D01*
X0020561Y0170829D02*
X0016770Y0170829D01*
X0016780Y0171536D02*
X0020561Y0171536D01*
X0020859Y0172243D02*
X0016780Y0172243D01*
X0016510Y0172950D02*
X0022136Y0172950D01*
X0022273Y0173658D02*
X0016202Y0173658D01*
X0015494Y0174365D02*
X0019765Y0174365D01*
X0019788Y0174342D02*
X0020921Y0174342D01*
X0021723Y0175143D01*
X0021723Y0176276D01*
X0020921Y0177078D01*
X0019788Y0177078D01*
X0018987Y0176276D01*
X0018987Y0175143D01*
X0019788Y0174342D01*
X0019058Y0175072D02*
X0014195Y0175072D01*
X0012105Y0175072D02*
X0010004Y0175072D01*
X0010004Y0175779D02*
X0018987Y0175779D01*
X0019197Y0176486D02*
X0010004Y0176486D01*
X0010004Y0177194D02*
X0054731Y0177194D01*
X0054827Y0177097D02*
X0055961Y0177097D01*
X0056762Y0177899D01*
X0056762Y0179032D01*
X0055961Y0179834D01*
X0055814Y0179834D01*
X0056391Y0180410D01*
X0056973Y0181815D01*
X0056973Y0183336D01*
X0056391Y0184741D01*
X0055315Y0185817D01*
X0053910Y0186399D01*
X0052390Y0186399D01*
X0050985Y0185817D01*
X0049909Y0184741D01*
X0049327Y0183336D01*
X0049327Y0181815D01*
X0049909Y0180410D01*
X0050985Y0179335D01*
X0052390Y0178753D01*
X0053910Y0178753D01*
X0054026Y0178801D01*
X0054026Y0177899D01*
X0054827Y0177097D01*
X0054026Y0177901D02*
X0010004Y0177901D01*
X0010004Y0178608D02*
X0010984Y0178608D01*
X0015316Y0178608D02*
X0054026Y0178608D01*
X0056003Y0180022D02*
X0059865Y0180022D01*
X0059572Y0180729D02*
X0056523Y0180729D01*
X0056816Y0181437D02*
X0059520Y0181437D01*
X0059520Y0182144D02*
X0056973Y0182144D01*
X0056973Y0182851D02*
X0059749Y0182851D01*
X0060042Y0183558D02*
X0056881Y0183558D01*
X0056588Y0184265D02*
X0060706Y0184265D01*
X0061865Y0184972D02*
X0056160Y0184972D01*
X0055453Y0185680D02*
X0066296Y0185680D01*
X0066296Y0186387D02*
X0053939Y0186387D01*
X0053910Y0186753D02*
X0055315Y0187335D01*
X0056391Y0188410D01*
X0056782Y0189354D01*
X0056782Y0188509D01*
X0057583Y0187708D01*
X0058717Y0187708D01*
X0059518Y0188509D01*
X0059518Y0189642D01*
X0058717Y0190444D01*
X0057583Y0190444D01*
X0056973Y0189833D01*
X0056973Y0191336D01*
X0056391Y0192741D01*
X0055315Y0193817D01*
X0053910Y0194399D01*
X0052390Y0194399D01*
X0050985Y0193817D01*
X0049909Y0192741D01*
X0049327Y0191336D01*
X0049327Y0189815D01*
X0049909Y0188410D01*
X0050985Y0187335D01*
X0052390Y0186753D01*
X0053910Y0186753D01*
X0054734Y0187094D02*
X0066296Y0187094D01*
X0066296Y0187801D02*
X0058810Y0187801D01*
X0059517Y0188508D02*
X0061084Y0188508D01*
X0060377Y0189215D02*
X0059518Y0189215D01*
X0059238Y0189923D02*
X0059906Y0189923D01*
X0059613Y0190630D02*
X0056973Y0190630D01*
X0056973Y0191337D02*
X0059520Y0191337D01*
X0059520Y0192044D02*
X0056680Y0192044D01*
X0056381Y0192751D02*
X0059708Y0192751D01*
X0060001Y0193458D02*
X0055674Y0193458D01*
X0054473Y0194166D02*
X0060606Y0194166D01*
X0057062Y0189923D02*
X0056973Y0189923D01*
X0056782Y0189215D02*
X0056724Y0189215D01*
X0056783Y0188508D02*
X0056431Y0188508D01*
X0055782Y0187801D02*
X0057490Y0187801D01*
X0052361Y0186387D02*
X0026973Y0186387D01*
X0026973Y0185815D02*
X0026391Y0184410D01*
X0025315Y0183335D01*
X0023910Y0182753D01*
X0022390Y0182753D01*
X0020985Y0183335D01*
X0019909Y0184410D01*
X0019327Y0185815D01*
X0019327Y0187336D01*
X0019909Y0188741D01*
X0020985Y0189817D01*
X0022390Y0190399D01*
X0023910Y0190399D01*
X0025315Y0189817D01*
X0026391Y0188741D01*
X0026973Y0187336D01*
X0026973Y0185815D01*
X0026917Y0185680D02*
X0050847Y0185680D01*
X0050140Y0184972D02*
X0026624Y0184972D01*
X0026246Y0184265D02*
X0049712Y0184265D01*
X0049419Y0183558D02*
X0025539Y0183558D01*
X0024147Y0182851D02*
X0039990Y0182851D01*
X0040083Y0182944D02*
X0039282Y0182142D01*
X0039282Y0181009D01*
X0040083Y0180208D01*
X0041217Y0180208D01*
X0042018Y0181009D01*
X0042018Y0182142D01*
X0041217Y0182944D01*
X0040083Y0182944D01*
X0039283Y0182144D02*
X0016780Y0182144D01*
X0016780Y0181437D02*
X0039282Y0181437D01*
X0039562Y0180729D02*
X0016728Y0180729D01*
X0016435Y0180022D02*
X0050297Y0180022D01*
X0049777Y0180729D02*
X0046738Y0180729D01*
X0047018Y0181009D02*
X0046217Y0180208D01*
X0045083Y0180208D01*
X0044282Y0181009D01*
X0044282Y0182142D01*
X0045083Y0182944D01*
X0046217Y0182944D01*
X0047018Y0182142D01*
X0047018Y0181009D01*
X0047018Y0181437D02*
X0049484Y0181437D01*
X0049327Y0182144D02*
X0047017Y0182144D01*
X0046310Y0182851D02*
X0049327Y0182851D01*
X0051033Y0179315D02*
X0016023Y0179315D01*
X0016551Y0182851D02*
X0022153Y0182851D01*
X0020761Y0183558D02*
X0016258Y0183558D01*
X0015594Y0184265D02*
X0020054Y0184265D01*
X0019676Y0184972D02*
X0014435Y0184972D01*
X0011865Y0184972D02*
X0010004Y0184972D01*
X0010004Y0184265D02*
X0010706Y0184265D01*
X0010004Y0185680D02*
X0019383Y0185680D01*
X0019327Y0186387D02*
X0010004Y0186387D01*
X0010004Y0187094D02*
X0019327Y0187094D01*
X0019520Y0187801D02*
X0010004Y0187801D01*
X0010004Y0188508D02*
X0011084Y0188508D01*
X0010377Y0189215D02*
X0010216Y0189215D01*
X0015216Y0188508D02*
X0019813Y0188508D01*
X0020383Y0189215D02*
X0015923Y0189215D01*
X0016394Y0189923D02*
X0021240Y0189923D01*
X0025060Y0189923D02*
X0049327Y0189923D01*
X0049327Y0190630D02*
X0046639Y0190630D01*
X0047018Y0191009D02*
X0046217Y0190208D01*
X0045083Y0190208D01*
X0044282Y0191009D01*
X0044282Y0192142D01*
X0045083Y0192944D01*
X0046217Y0192944D01*
X0047018Y0192142D01*
X0047018Y0191009D01*
X0047018Y0191337D02*
X0049327Y0191337D01*
X0049620Y0192044D02*
X0047018Y0192044D01*
X0046409Y0192751D02*
X0049919Y0192751D01*
X0050626Y0193458D02*
X0016299Y0193458D01*
X0016592Y0192751D02*
X0039891Y0192751D01*
X0040083Y0192944D02*
X0039282Y0192142D01*
X0039282Y0191009D01*
X0040083Y0190208D01*
X0041217Y0190208D01*
X0042018Y0191009D01*
X0042018Y0192142D01*
X0041217Y0192944D01*
X0040083Y0192944D01*
X0039282Y0192044D02*
X0016780Y0192044D01*
X0016780Y0191337D02*
X0039282Y0191337D01*
X0039661Y0190630D02*
X0016687Y0190630D01*
X0015694Y0194166D02*
X0051827Y0194166D01*
X0049576Y0189215D02*
X0025917Y0189215D01*
X0026487Y0188508D02*
X0049869Y0188508D01*
X0050518Y0187801D02*
X0026780Y0187801D01*
X0026973Y0187094D02*
X0051566Y0187094D01*
X0044661Y0190630D02*
X0041639Y0190630D01*
X0042018Y0191337D02*
X0044282Y0191337D01*
X0044282Y0192044D02*
X0042018Y0192044D01*
X0041409Y0192751D02*
X0044891Y0192751D01*
X0044990Y0182851D02*
X0041310Y0182851D01*
X0042017Y0182144D02*
X0044283Y0182144D01*
X0044282Y0181437D02*
X0042018Y0181437D01*
X0041738Y0180729D02*
X0044562Y0180729D01*
X0051176Y0174036D02*
X0050374Y0173235D01*
X0050374Y0172102D01*
X0051176Y0171300D01*
X0052309Y0171300D01*
X0053111Y0172102D01*
X0053111Y0173235D01*
X0052309Y0174036D01*
X0051176Y0174036D01*
X0050797Y0173658D02*
X0024735Y0173658D01*
X0024872Y0172950D02*
X0050374Y0172950D01*
X0050374Y0172243D02*
X0024729Y0172243D01*
X0023298Y0171536D02*
X0026451Y0171536D01*
X0025744Y0170829D02*
X0023298Y0170829D01*
X0022607Y0170122D02*
X0025680Y0170122D01*
X0024410Y0168707D02*
X0019449Y0168707D01*
X0019347Y0168810D02*
X0018213Y0168810D01*
X0017412Y0168009D01*
X0017412Y0166875D01*
X0018213Y0166074D01*
X0019347Y0166074D01*
X0020148Y0166875D01*
X0020148Y0168009D01*
X0019347Y0168810D01*
X0020148Y0168000D02*
X0023711Y0168000D01*
X0023711Y0167293D02*
X0023600Y0167293D01*
X0023793Y0166586D02*
X0024000Y0166586D01*
X0021971Y0165879D02*
X0010004Y0165879D01*
X0010004Y0166586D02*
X0017701Y0166586D01*
X0017412Y0167293D02*
X0010004Y0167293D01*
X0010004Y0168000D02*
X0012297Y0168000D01*
X0010885Y0168707D02*
X0010004Y0168707D01*
X0014003Y0168000D02*
X0017412Y0168000D01*
X0018111Y0168707D02*
X0015415Y0168707D01*
X0019859Y0166586D02*
X0021641Y0166586D01*
X0021834Y0167293D02*
X0020148Y0167293D01*
X0021363Y0164873D02*
X0020561Y0164072D01*
X0020561Y0162938D01*
X0021363Y0162137D01*
X0022496Y0162137D01*
X0023298Y0162938D01*
X0023298Y0164072D01*
X0022496Y0164873D01*
X0021363Y0164873D01*
X0020954Y0164464D02*
X0015395Y0164464D01*
X0016102Y0163757D02*
X0020561Y0163757D01*
X0020561Y0163050D02*
X0016468Y0163050D01*
X0016761Y0162343D02*
X0021157Y0162343D01*
X0022702Y0162343D02*
X0037730Y0162343D01*
X0037898Y0162511D02*
X0037097Y0161709D01*
X0037097Y0160576D01*
X0037898Y0159775D01*
X0039032Y0159775D01*
X0039833Y0160576D01*
X0039833Y0161709D01*
X0039032Y0162511D01*
X0037898Y0162511D01*
X0037097Y0161636D02*
X0036363Y0161636D01*
X0036683Y0161316D02*
X0035882Y0162117D01*
X0034749Y0162117D01*
X0033947Y0161316D01*
X0033947Y0160182D01*
X0034749Y0159381D01*
X0035882Y0159381D01*
X0036683Y0160182D01*
X0036683Y0161316D01*
X0036683Y0160929D02*
X0037097Y0160929D01*
X0037452Y0160221D02*
X0036683Y0160221D01*
X0036015Y0159514D02*
X0044476Y0159514D01*
X0044476Y0159620D02*
X0044476Y0158729D01*
X0044817Y0158387D01*
X0044476Y0158045D01*
X0044476Y0157154D01*
X0045106Y0156523D01*
X0045997Y0156523D01*
X0046628Y0157154D01*
X0046628Y0158045D01*
X0046286Y0158387D01*
X0046628Y0158729D01*
X0046628Y0159620D01*
X0046286Y0159962D01*
X0046339Y0160015D01*
X0046681Y0159673D01*
X0047572Y0159673D01*
X0048202Y0160303D01*
X0048202Y0161195D01*
X0047572Y0161825D01*
X0046681Y0161825D01*
X0046339Y0161483D01*
X0045997Y0161825D01*
X0045106Y0161825D01*
X0044476Y0161195D01*
X0044476Y0160303D01*
X0044817Y0159962D01*
X0044476Y0159620D01*
X0044558Y0160221D02*
X0039478Y0160221D01*
X0039833Y0160929D02*
X0044476Y0160929D01*
X0044917Y0161636D02*
X0039833Y0161636D01*
X0039200Y0162343D02*
X0059539Y0162343D01*
X0059520Y0161636D02*
X0047761Y0161636D01*
X0048202Y0160929D02*
X0053245Y0160929D01*
X0052845Y0160528D02*
X0052845Y0159395D01*
X0053646Y0158594D01*
X0054780Y0158594D01*
X0055581Y0159395D01*
X0055581Y0160528D01*
X0054780Y0161330D01*
X0053646Y0161330D01*
X0052845Y0160528D01*
X0052845Y0160221D02*
X0049176Y0160221D01*
X0049147Y0160250D02*
X0048255Y0160250D01*
X0047625Y0159620D01*
X0047625Y0158729D01*
X0048255Y0158098D01*
X0049147Y0158098D01*
X0049777Y0158729D01*
X0049777Y0159620D01*
X0049147Y0160250D01*
X0048227Y0160221D02*
X0048120Y0160221D01*
X0047625Y0159514D02*
X0046628Y0159514D01*
X0046628Y0158807D02*
X0047625Y0158807D01*
X0048254Y0158100D02*
X0046573Y0158100D01*
X0046628Y0157393D02*
X0055207Y0157393D01*
X0055207Y0157772D02*
X0055207Y0156639D01*
X0055625Y0156221D01*
X0055207Y0155804D01*
X0055207Y0154671D01*
X0055625Y0154253D01*
X0055207Y0153835D01*
X0055207Y0152702D01*
X0056009Y0151901D01*
X0057142Y0151901D01*
X0057943Y0152702D01*
X0057943Y0153835D01*
X0057526Y0154253D01*
X0057943Y0154671D01*
X0057943Y0155804D01*
X0057526Y0156221D01*
X0057943Y0156639D01*
X0057943Y0157772D01*
X0057142Y0158574D01*
X0056009Y0158574D01*
X0055207Y0157772D01*
X0055535Y0158100D02*
X0049148Y0158100D01*
X0049777Y0158807D02*
X0053433Y0158807D01*
X0052845Y0159514D02*
X0049777Y0159514D01*
X0046491Y0161636D02*
X0046187Y0161636D01*
X0047775Y0164464D02*
X0041753Y0164464D01*
X0042195Y0165172D02*
X0047333Y0165172D01*
X0047333Y0165879D02*
X0042195Y0165879D01*
X0041649Y0166586D02*
X0047879Y0166586D01*
X0048096Y0167293D02*
X0041432Y0167293D01*
X0042139Y0168000D02*
X0047389Y0168000D01*
X0047333Y0168707D02*
X0042195Y0168707D01*
X0041970Y0169415D02*
X0047558Y0169415D01*
X0050940Y0171536D02*
X0027644Y0171536D01*
X0028351Y0170829D02*
X0059530Y0170829D01*
X0059520Y0171536D02*
X0052545Y0171536D01*
X0053111Y0172243D02*
X0059520Y0172243D01*
X0059790Y0172950D02*
X0053111Y0172950D01*
X0052688Y0173658D02*
X0060098Y0173658D01*
X0060806Y0174365D02*
X0020945Y0174365D01*
X0021652Y0175072D02*
X0062105Y0175072D01*
X0064195Y0175072D02*
X0066296Y0175072D01*
X0066296Y0175779D02*
X0021723Y0175779D01*
X0021513Y0176486D02*
X0066296Y0176486D01*
X0066296Y0177194D02*
X0056057Y0177194D01*
X0056762Y0177901D02*
X0066296Y0177901D01*
X0066296Y0178608D02*
X0065316Y0178608D01*
X0065494Y0174365D02*
X0066296Y0174365D01*
X0066296Y0168707D02*
X0065415Y0168707D01*
X0066296Y0168000D02*
X0064003Y0168000D01*
X0062297Y0168000D02*
X0059462Y0168000D01*
X0059518Y0168707D02*
X0060885Y0168707D01*
X0058755Y0167293D02*
X0066296Y0167293D01*
X0066296Y0166586D02*
X0059366Y0166586D01*
X0059518Y0165879D02*
X0066296Y0165879D01*
X0066296Y0165172D02*
X0063954Y0165172D01*
X0065395Y0164464D02*
X0066296Y0164464D01*
X0062346Y0165172D02*
X0059389Y0165172D01*
X0060198Y0163757D02*
X0055581Y0163757D01*
X0055581Y0164464D02*
X0060905Y0164464D01*
X0059832Y0163050D02*
X0054905Y0163050D01*
X0053520Y0163050D02*
X0036008Y0163050D01*
X0034623Y0163050D02*
X0023298Y0163050D01*
X0023298Y0163757D02*
X0033947Y0163757D01*
X0033947Y0164464D02*
X0022905Y0164464D01*
X0026158Y0166586D02*
X0036309Y0166586D01*
X0036309Y0167293D02*
X0026447Y0167293D01*
X0026447Y0168000D02*
X0036695Y0168000D01*
X0038660Y0168000D02*
X0039515Y0168000D01*
X0039046Y0167293D02*
X0040222Y0167293D01*
X0040005Y0166586D02*
X0039046Y0166586D01*
X0039459Y0165879D02*
X0038443Y0165879D01*
X0034260Y0165172D02*
X0013954Y0165172D01*
X0012346Y0165172D02*
X0010004Y0165172D01*
X0010004Y0164464D02*
X0010905Y0164464D01*
X0016780Y0161636D02*
X0034267Y0161636D01*
X0033947Y0160929D02*
X0016780Y0160929D01*
X0016518Y0160221D02*
X0033947Y0160221D01*
X0034615Y0159514D02*
X0016222Y0159514D01*
X0015515Y0158807D02*
X0044476Y0158807D01*
X0044530Y0158100D02*
X0014244Y0158100D01*
X0012056Y0158100D02*
X0010004Y0158100D01*
X0010004Y0158807D02*
X0010785Y0158807D01*
X0010004Y0157393D02*
X0037898Y0157393D01*
X0037097Y0156591D01*
X0037097Y0155458D01*
X0037898Y0154657D01*
X0039032Y0154657D01*
X0039833Y0155458D01*
X0039833Y0155497D01*
X0040381Y0154949D01*
X0041273Y0154949D01*
X0041615Y0155290D01*
X0041956Y0154949D01*
X0042848Y0154949D01*
X0043478Y0155579D01*
X0043478Y0156470D01*
X0042848Y0157101D01*
X0041956Y0157101D01*
X0041615Y0156759D01*
X0041273Y0157101D01*
X0040381Y0157101D01*
X0039833Y0156552D01*
X0039833Y0156591D01*
X0039032Y0157393D01*
X0044476Y0157393D01*
X0044944Y0156685D02*
X0043263Y0156685D01*
X0043478Y0155978D02*
X0055382Y0155978D01*
X0055207Y0155271D02*
X0046252Y0155271D01*
X0045997Y0155526D02*
X0045106Y0155526D01*
X0044764Y0155184D01*
X0044422Y0155526D01*
X0043531Y0155526D01*
X0042901Y0154896D01*
X0042901Y0154004D01*
X0043531Y0153374D01*
X0044422Y0153374D01*
X0044764Y0153716D01*
X0044817Y0153662D01*
X0044476Y0153321D01*
X0044476Y0152429D01*
X0045106Y0151799D01*
X0045997Y0151799D01*
X0046339Y0152141D01*
X0046392Y0152088D01*
X0046050Y0151746D01*
X0046050Y0150855D01*
X0046392Y0150513D01*
X0046050Y0150171D01*
X0046050Y0149280D01*
X0046681Y0148649D01*
X0047572Y0148649D01*
X0048202Y0149280D01*
X0048202Y0150171D01*
X0047861Y0150513D01*
X0048202Y0150855D01*
X0048202Y0151746D01*
X0047861Y0152088D01*
X0048202Y0152429D01*
X0048202Y0153321D01*
X0047572Y0153951D01*
X0046681Y0153951D01*
X0046339Y0153609D01*
X0046286Y0153662D01*
X0046628Y0154004D01*
X0046628Y0154896D01*
X0045997Y0155526D01*
X0046628Y0154564D02*
X0055314Y0154564D01*
X0055228Y0153857D02*
X0047666Y0153857D01*
X0048202Y0153150D02*
X0055207Y0153150D01*
X0055467Y0152442D02*
X0048202Y0152442D01*
X0048202Y0151735D02*
X0059520Y0151735D01*
X0059520Y0151028D02*
X0048202Y0151028D01*
X0048053Y0150321D02*
X0059741Y0150321D01*
X0060034Y0149614D02*
X0048202Y0149614D01*
X0047829Y0148907D02*
X0060686Y0148907D01*
X0061816Y0148199D02*
X0052556Y0148199D01*
X0052825Y0147930D02*
X0052024Y0148731D01*
X0050890Y0148731D01*
X0050089Y0147930D01*
X0050089Y0146797D01*
X0050890Y0145995D01*
X0052024Y0145995D01*
X0052825Y0146797D01*
X0052825Y0147930D01*
X0052825Y0147492D02*
X0066296Y0147492D01*
X0066296Y0146785D02*
X0052814Y0146785D01*
X0052107Y0146078D02*
X0066296Y0146078D01*
X0066296Y0145371D02*
X0047313Y0145371D01*
X0047313Y0144828D02*
X0046512Y0144027D01*
X0045379Y0144027D01*
X0044577Y0144828D01*
X0044577Y0145961D01*
X0045379Y0146763D01*
X0046512Y0146763D01*
X0047313Y0145961D01*
X0047313Y0144828D01*
X0047149Y0144664D02*
X0061119Y0144664D01*
X0060397Y0143956D02*
X0015903Y0143956D01*
X0016386Y0143249D02*
X0059914Y0143249D01*
X0059621Y0142542D02*
X0016679Y0142542D01*
X0016780Y0141835D02*
X0059520Y0141835D01*
X0059520Y0141128D02*
X0016780Y0141128D01*
X0016600Y0140421D02*
X0033524Y0140421D01*
X0033160Y0140056D02*
X0033160Y0138923D01*
X0033194Y0138889D01*
X0033174Y0138889D01*
X0032372Y0138087D01*
X0032372Y0136954D01*
X0033174Y0136153D01*
X0034307Y0136153D01*
X0035109Y0136954D01*
X0035109Y0138087D01*
X0035075Y0138121D01*
X0035095Y0138121D01*
X0035896Y0138923D01*
X0035896Y0140056D01*
X0035095Y0140857D01*
X0033961Y0140857D01*
X0033160Y0140056D01*
X0033160Y0139713D02*
X0016308Y0139713D01*
X0015714Y0139006D02*
X0033160Y0139006D01*
X0032584Y0138299D02*
X0025448Y0138299D01*
X0025660Y0138087D02*
X0024858Y0138889D01*
X0023725Y0138889D01*
X0022924Y0138087D01*
X0022924Y0137314D01*
X0022544Y0137314D01*
X0021743Y0136513D01*
X0021743Y0135379D01*
X0022544Y0134578D01*
X0023677Y0134578D01*
X0024479Y0135379D01*
X0024479Y0136153D01*
X0024858Y0136153D01*
X0025660Y0136954D01*
X0025660Y0138087D01*
X0025660Y0137592D02*
X0027566Y0137592D01*
X0027783Y0137809D02*
X0027153Y0137179D01*
X0027153Y0136288D01*
X0027494Y0135946D01*
X0027153Y0135604D01*
X0027153Y0134713D01*
X0027783Y0134083D01*
X0028674Y0134083D01*
X0029305Y0134713D01*
X0029305Y0135604D01*
X0028963Y0135946D01*
X0029305Y0136288D01*
X0029305Y0137179D01*
X0028674Y0137809D01*
X0027783Y0137809D01*
X0027153Y0136885D02*
X0025590Y0136885D01*
X0024883Y0136177D02*
X0027263Y0136177D01*
X0027153Y0135470D02*
X0024479Y0135470D01*
X0023863Y0134763D02*
X0027153Y0134763D01*
X0029305Y0134763D02*
X0032372Y0134763D01*
X0032372Y0134938D02*
X0032372Y0133804D01*
X0033174Y0133003D01*
X0034307Y0133003D01*
X0035109Y0133804D01*
X0035109Y0134938D01*
X0034307Y0135739D01*
X0033174Y0135739D01*
X0032372Y0134938D01*
X0032905Y0135470D02*
X0029305Y0135470D01*
X0029195Y0136177D02*
X0033149Y0136177D01*
X0032442Y0136885D02*
X0029305Y0136885D01*
X0028892Y0137592D02*
X0032372Y0137592D01*
X0034332Y0136177D02*
X0040246Y0136177D01*
X0040246Y0136513D02*
X0040246Y0135379D01*
X0041048Y0134578D01*
X0042181Y0134578D01*
X0042983Y0135379D01*
X0042983Y0136513D01*
X0042181Y0137314D01*
X0041048Y0137314D01*
X0040246Y0136513D01*
X0040619Y0136885D02*
X0035039Y0136885D01*
X0035109Y0137592D02*
X0044727Y0137592D01*
X0044577Y0137741D02*
X0045005Y0137314D01*
X0044985Y0137314D01*
X0044183Y0136513D01*
X0044183Y0135379D01*
X0044985Y0134578D01*
X0046118Y0134578D01*
X0046920Y0135379D01*
X0046920Y0136513D01*
X0046492Y0136940D01*
X0046512Y0136940D01*
X0047313Y0137741D01*
X0047313Y0138875D01*
X0046512Y0139676D01*
X0045379Y0139676D01*
X0044577Y0138875D01*
X0044577Y0137741D01*
X0044577Y0138299D02*
X0035273Y0138299D01*
X0035896Y0139006D02*
X0044709Y0139006D01*
X0044556Y0136885D02*
X0042611Y0136885D01*
X0042983Y0136177D02*
X0044183Y0136177D01*
X0044183Y0135470D02*
X0042983Y0135470D01*
X0042367Y0134763D02*
X0044800Y0134763D01*
X0044985Y0134558D02*
X0044183Y0133757D01*
X0044183Y0132623D01*
X0044985Y0131822D01*
X0046118Y0131822D01*
X0046920Y0132623D01*
X0046920Y0133757D01*
X0046118Y0134558D01*
X0044985Y0134558D01*
X0044483Y0134056D02*
X0042683Y0134056D01*
X0042983Y0133757D02*
X0042181Y0134558D01*
X0041048Y0134558D01*
X0040246Y0133757D01*
X0040246Y0132623D01*
X0041048Y0131822D01*
X0042181Y0131822D01*
X0042983Y0132623D01*
X0042983Y0133757D01*
X0042983Y0133349D02*
X0044183Y0133349D01*
X0044183Y0132642D02*
X0042983Y0132642D01*
X0042294Y0131934D02*
X0044872Y0131934D01*
X0046231Y0131934D02*
X0059520Y0131934D01*
X0059520Y0131227D02*
X0035109Y0131227D01*
X0035109Y0131788D02*
X0034307Y0132590D01*
X0033174Y0132590D01*
X0032372Y0131788D01*
X0032372Y0130655D01*
X0033174Y0129853D01*
X0034307Y0129853D01*
X0035109Y0130655D01*
X0035109Y0131788D01*
X0034962Y0131934D02*
X0040935Y0131934D01*
X0040246Y0132642D02*
X0025594Y0132642D01*
X0025252Y0132983D02*
X0026054Y0132182D01*
X0026054Y0131048D01*
X0025252Y0130247D01*
X0024119Y0130247D01*
X0023317Y0131048D01*
X0023317Y0132182D01*
X0024119Y0132983D01*
X0025252Y0132983D01*
X0026054Y0131934D02*
X0032519Y0131934D01*
X0032372Y0131227D02*
X0026054Y0131227D01*
X0025525Y0130520D02*
X0032507Y0130520D01*
X0034974Y0130520D02*
X0059658Y0130520D01*
X0059951Y0129813D02*
X0016349Y0129813D01*
X0016642Y0130520D02*
X0023846Y0130520D01*
X0023317Y0131227D02*
X0016780Y0131227D01*
X0016780Y0131934D02*
X0023317Y0131934D01*
X0023777Y0132642D02*
X0016638Y0132642D01*
X0016345Y0133349D02*
X0032828Y0133349D01*
X0032372Y0134056D02*
X0015803Y0134056D01*
X0014941Y0134763D02*
X0022359Y0134763D01*
X0021743Y0135470D02*
X0010004Y0135470D01*
X0010004Y0134763D02*
X0011359Y0134763D01*
X0010497Y0134056D02*
X0010096Y0134056D01*
X0010004Y0136177D02*
X0021743Y0136177D01*
X0022115Y0136885D02*
X0010004Y0136885D01*
X0010004Y0137592D02*
X0022924Y0137592D01*
X0023135Y0138299D02*
X0014725Y0138299D01*
X0011575Y0138299D02*
X0010004Y0138299D01*
X0010007Y0139006D02*
X0010586Y0139006D01*
X0010397Y0143956D02*
X0010196Y0143956D01*
X0010004Y0144664D02*
X0011119Y0144664D01*
X0010004Y0145371D02*
X0032223Y0145371D01*
X0031979Y0145615D02*
X0032780Y0144814D01*
X0033914Y0144814D01*
X0034715Y0145615D01*
X0034715Y0146749D01*
X0033914Y0147550D01*
X0032780Y0147550D01*
X0031979Y0146749D01*
X0031979Y0145615D01*
X0031979Y0146078D02*
X0010004Y0146078D01*
X0010004Y0146785D02*
X0032015Y0146785D01*
X0031551Y0147176D02*
X0032353Y0147978D01*
X0032353Y0149111D01*
X0031551Y0149912D01*
X0030418Y0149912D01*
X0030000Y0149495D01*
X0029583Y0149912D01*
X0028449Y0149912D01*
X0027648Y0149111D01*
X0027648Y0147978D01*
X0028449Y0147176D01*
X0029583Y0147176D01*
X0030000Y0147594D01*
X0030418Y0147176D01*
X0031551Y0147176D01*
X0031867Y0147492D02*
X0032722Y0147492D01*
X0032353Y0148199D02*
X0035004Y0148199D01*
X0034735Y0147930D02*
X0035536Y0148731D01*
X0036669Y0148731D01*
X0037087Y0148314D01*
X0037505Y0148731D01*
X0038638Y0148731D01*
X0039439Y0147930D01*
X0039439Y0147550D01*
X0040213Y0147550D01*
X0041014Y0146749D01*
X0041014Y0145615D01*
X0040213Y0144814D01*
X0039079Y0144814D01*
X0038278Y0145615D01*
X0038278Y0145995D01*
X0037505Y0145995D01*
X0037087Y0146413D01*
X0036669Y0145995D01*
X0035536Y0145995D01*
X0034735Y0146797D01*
X0034735Y0147930D01*
X0034735Y0147492D02*
X0033971Y0147492D01*
X0034679Y0146785D02*
X0034746Y0146785D01*
X0034715Y0146078D02*
X0035453Y0146078D01*
X0034470Y0145371D02*
X0038523Y0145371D01*
X0037422Y0146078D02*
X0036752Y0146078D01*
X0039170Y0148199D02*
X0050359Y0148199D01*
X0050089Y0147492D02*
X0040271Y0147492D01*
X0040978Y0146785D02*
X0050100Y0146785D01*
X0050808Y0146078D02*
X0047197Y0146078D01*
X0044694Y0146078D02*
X0041014Y0146078D01*
X0040769Y0145371D02*
X0044577Y0145371D01*
X0044742Y0144664D02*
X0015181Y0144664D01*
X0017820Y0147176D02*
X0018953Y0147176D01*
X0019754Y0147978D01*
X0019754Y0149111D01*
X0018953Y0149912D01*
X0017820Y0149912D01*
X0017018Y0149111D01*
X0017018Y0147978D01*
X0017820Y0147176D01*
X0017503Y0147492D02*
X0010004Y0147492D01*
X0010004Y0148199D02*
X0011816Y0148199D01*
X0010686Y0148907D02*
X0010004Y0148907D01*
X0014484Y0148199D02*
X0017018Y0148199D01*
X0017018Y0148907D02*
X0015614Y0148907D01*
X0016266Y0149614D02*
X0017521Y0149614D01*
X0016559Y0150321D02*
X0046200Y0150321D01*
X0046050Y0151028D02*
X0016780Y0151028D01*
X0016780Y0151735D02*
X0046050Y0151735D01*
X0044476Y0152442D02*
X0043478Y0152442D01*
X0043478Y0152429D02*
X0042848Y0151799D01*
X0041956Y0151799D01*
X0041326Y0152429D01*
X0041326Y0153321D01*
X0041956Y0153951D01*
X0042848Y0153951D01*
X0043478Y0153321D01*
X0043478Y0152429D01*
X0043478Y0153150D02*
X0044476Y0153150D01*
X0043048Y0153857D02*
X0042942Y0153857D01*
X0042901Y0154564D02*
X0034380Y0154564D01*
X0034715Y0154229D02*
X0033914Y0155031D01*
X0033140Y0155031D01*
X0033140Y0155804D01*
X0032339Y0156605D01*
X0031205Y0156605D01*
X0030404Y0155804D01*
X0030404Y0154671D01*
X0031205Y0153869D01*
X0031979Y0153869D01*
X0031979Y0153096D01*
X0032780Y0152294D01*
X0033914Y0152294D01*
X0034715Y0153096D01*
X0034715Y0154229D01*
X0034715Y0153857D02*
X0041862Y0153857D01*
X0041326Y0153150D02*
X0034715Y0153150D01*
X0034062Y0152442D02*
X0041326Y0152442D01*
X0046480Y0153857D02*
X0046587Y0153857D01*
X0044851Y0155271D02*
X0044677Y0155271D01*
X0043276Y0155271D02*
X0043170Y0155271D01*
X0041634Y0155271D02*
X0041595Y0155271D01*
X0040059Y0155271D02*
X0039646Y0155271D01*
X0039739Y0156685D02*
X0039966Y0156685D01*
X0039032Y0157393D02*
X0037898Y0157393D01*
X0037191Y0156685D02*
X0010004Y0156685D01*
X0010004Y0155978D02*
X0030578Y0155978D01*
X0030404Y0155271D02*
X0010004Y0155271D01*
X0010004Y0154564D02*
X0011005Y0154564D01*
X0010298Y0153857D02*
X0010295Y0153857D01*
X0015295Y0154564D02*
X0030510Y0154564D01*
X0031979Y0153857D02*
X0016002Y0153857D01*
X0016427Y0153150D02*
X0031979Y0153150D01*
X0032632Y0152442D02*
X0016720Y0152442D01*
X0019252Y0149614D02*
X0028151Y0149614D01*
X0027648Y0148907D02*
X0019754Y0148907D01*
X0019754Y0148199D02*
X0027648Y0148199D01*
X0028133Y0147492D02*
X0019269Y0147492D01*
X0029899Y0147492D02*
X0030102Y0147492D01*
X0030119Y0149614D02*
X0029881Y0149614D01*
X0031850Y0149614D02*
X0046050Y0149614D01*
X0046424Y0148907D02*
X0032353Y0148907D01*
X0033140Y0155271D02*
X0037284Y0155271D01*
X0037097Y0155978D02*
X0032966Y0155978D01*
X0046159Y0156685D02*
X0055207Y0156685D01*
X0054993Y0158807D02*
X0057370Y0158807D01*
X0057583Y0158594D02*
X0058717Y0158594D01*
X0059518Y0159395D01*
X0059518Y0160528D01*
X0058717Y0161330D01*
X0057583Y0161330D01*
X0056782Y0160528D01*
X0056782Y0159395D01*
X0057583Y0158594D01*
X0057616Y0158100D02*
X0062056Y0158100D01*
X0060785Y0158807D02*
X0058930Y0158807D01*
X0059518Y0159514D02*
X0060078Y0159514D01*
X0059782Y0160221D02*
X0059518Y0160221D01*
X0059520Y0160929D02*
X0059118Y0160929D01*
X0057182Y0160929D02*
X0055181Y0160929D01*
X0055581Y0160221D02*
X0056782Y0160221D01*
X0056782Y0159514D02*
X0055581Y0159514D01*
X0057943Y0157393D02*
X0066296Y0157393D01*
X0066296Y0158100D02*
X0064244Y0158100D01*
X0065515Y0158807D02*
X0066296Y0158807D01*
X0066296Y0156685D02*
X0057943Y0156685D01*
X0057769Y0155978D02*
X0066296Y0155978D01*
X0066296Y0155271D02*
X0057943Y0155271D01*
X0057837Y0154564D02*
X0061005Y0154564D01*
X0060298Y0153857D02*
X0057922Y0153857D01*
X0057943Y0153150D02*
X0059873Y0153150D01*
X0059580Y0152442D02*
X0057684Y0152442D01*
X0065295Y0154564D02*
X0066296Y0154564D01*
X0066005Y0153857D02*
X0066002Y0153857D01*
X0066296Y0148907D02*
X0065614Y0148907D01*
X0066296Y0148199D02*
X0064484Y0148199D01*
X0065181Y0144664D02*
X0066296Y0144664D01*
X0066104Y0143956D02*
X0065903Y0143956D01*
X0059700Y0140421D02*
X0035531Y0140421D01*
X0035896Y0139713D02*
X0059992Y0139713D01*
X0060586Y0139006D02*
X0047182Y0139006D01*
X0047313Y0138299D02*
X0061575Y0138299D01*
X0064725Y0138299D02*
X0066296Y0138299D01*
X0066293Y0139006D02*
X0065714Y0139006D01*
X0066296Y0137592D02*
X0047164Y0137592D01*
X0046548Y0136885D02*
X0066296Y0136885D01*
X0066296Y0136177D02*
X0046920Y0136177D01*
X0046920Y0135470D02*
X0066296Y0135470D01*
X0066296Y0134763D02*
X0064941Y0134763D01*
X0065803Y0134056D02*
X0066204Y0134056D01*
X0061359Y0134763D02*
X0052212Y0134763D01*
X0052024Y0134952D02*
X0052825Y0134150D01*
X0052825Y0133017D01*
X0052024Y0132216D01*
X0050890Y0132216D01*
X0050089Y0133017D01*
X0050089Y0134150D01*
X0050890Y0134952D01*
X0052024Y0134952D01*
X0052825Y0134056D02*
X0060497Y0134056D01*
X0059955Y0133349D02*
X0052825Y0133349D01*
X0052450Y0132642D02*
X0059662Y0132642D01*
X0060487Y0129106D02*
X0015813Y0129106D01*
X0014965Y0128399D02*
X0061335Y0128399D01*
X0064965Y0128399D02*
X0066296Y0128399D01*
X0066296Y0127691D02*
X0010004Y0127691D01*
X0010004Y0126984D02*
X0017726Y0126984D01*
X0017820Y0127078D02*
X0017018Y0126276D01*
X0017018Y0125143D01*
X0017820Y0124342D01*
X0018953Y0124342D01*
X0019754Y0125143D01*
X0019754Y0126276D01*
X0018953Y0127078D01*
X0017820Y0127078D01*
X0017019Y0126277D02*
X0010004Y0126277D01*
X0010004Y0125570D02*
X0017018Y0125570D01*
X0017298Y0124863D02*
X0014700Y0124863D01*
X0015704Y0124156D02*
X0043202Y0124156D01*
X0043410Y0123948D02*
X0044543Y0123948D01*
X0045345Y0124749D01*
X0045345Y0125883D01*
X0044543Y0126684D01*
X0043410Y0126684D01*
X0042609Y0125883D01*
X0042609Y0124749D01*
X0043410Y0123948D01*
X0042609Y0124863D02*
X0030891Y0124863D01*
X0031172Y0125143D02*
X0030370Y0124342D01*
X0029237Y0124342D01*
X0028435Y0125143D01*
X0028435Y0126276D01*
X0029237Y0127078D01*
X0030370Y0127078D01*
X0031172Y0126276D01*
X0031172Y0125143D01*
X0031172Y0125570D02*
X0042609Y0125570D01*
X0043003Y0126277D02*
X0031171Y0126277D01*
X0030464Y0126984D02*
X0066296Y0126984D01*
X0066296Y0126277D02*
X0044950Y0126277D01*
X0045345Y0125570D02*
X0066296Y0125570D01*
X0066296Y0124863D02*
X0064700Y0124863D01*
X0065704Y0124156D02*
X0066296Y0124156D01*
X0061600Y0124863D02*
X0045345Y0124863D01*
X0044751Y0124156D02*
X0060596Y0124156D01*
X0059997Y0123448D02*
X0016303Y0123448D01*
X0016596Y0122741D02*
X0059704Y0122741D01*
X0059520Y0122034D02*
X0016780Y0122034D01*
X0016780Y0121327D02*
X0059520Y0121327D01*
X0059617Y0120620D02*
X0016683Y0120620D01*
X0016390Y0119913D02*
X0059910Y0119913D01*
X0060387Y0119205D02*
X0015913Y0119205D01*
X0015205Y0118498D02*
X0061095Y0118498D01*
X0061840Y0114962D02*
X0045794Y0114962D01*
X0046132Y0115300D02*
X0045331Y0114499D01*
X0044197Y0114499D01*
X0043396Y0115300D01*
X0043396Y0116434D01*
X0044197Y0117235D01*
X0045331Y0117235D01*
X0046132Y0116434D01*
X0046132Y0115300D01*
X0046132Y0115669D02*
X0066296Y0115669D01*
X0066296Y0114962D02*
X0064460Y0114962D01*
X0065604Y0114255D02*
X0066296Y0114255D01*
X0066296Y0116377D02*
X0046132Y0116377D01*
X0045482Y0117084D02*
X0066296Y0117084D01*
X0066296Y0117791D02*
X0010004Y0117791D01*
X0010004Y0118498D02*
X0011095Y0118498D01*
X0010387Y0119205D02*
X0010206Y0119205D01*
X0010004Y0117084D02*
X0044046Y0117084D01*
X0043396Y0116377D02*
X0010004Y0116377D01*
X0010004Y0115669D02*
X0043396Y0115669D01*
X0043734Y0114962D02*
X0014460Y0114962D01*
X0015604Y0114255D02*
X0060696Y0114255D01*
X0060038Y0113548D02*
X0016262Y0113548D01*
X0016555Y0112841D02*
X0044134Y0112841D01*
X0043790Y0112497D02*
X0044591Y0113298D01*
X0045725Y0113298D01*
X0046526Y0112497D01*
X0046526Y0111363D01*
X0045725Y0110562D01*
X0044591Y0110562D01*
X0043790Y0111363D01*
X0043790Y0112497D01*
X0043790Y0112134D02*
X0016780Y0112134D01*
X0016780Y0111426D02*
X0043790Y0111426D01*
X0044434Y0110719D02*
X0016724Y0110719D01*
X0016431Y0110012D02*
X0059869Y0110012D01*
X0059576Y0110719D02*
X0045882Y0110719D01*
X0046526Y0111426D02*
X0059520Y0111426D01*
X0059520Y0112134D02*
X0046526Y0112134D01*
X0046182Y0112841D02*
X0059745Y0112841D01*
X0060287Y0109305D02*
X0040856Y0109305D01*
X0041018Y0109142D02*
X0040217Y0109944D01*
X0039083Y0109944D01*
X0038282Y0109142D01*
X0038282Y0108009D01*
X0039083Y0107208D01*
X0040217Y0107208D01*
X0041018Y0108009D01*
X0041018Y0109142D01*
X0041018Y0108598D02*
X0060995Y0108598D01*
X0057550Y0107379D02*
X0056748Y0108180D01*
X0055615Y0108180D01*
X0054813Y0107379D01*
X0054813Y0106245D01*
X0055615Y0105444D01*
X0056748Y0105444D01*
X0057550Y0106245D01*
X0057550Y0107379D01*
X0057550Y0107183D02*
X0066296Y0107183D01*
X0066296Y0106476D02*
X0057550Y0106476D01*
X0057073Y0105769D02*
X0061965Y0105769D01*
X0062796Y0105769D02*
X0063504Y0105769D01*
X0063504Y0105062D02*
X0062796Y0105062D01*
X0062796Y0104355D02*
X0063504Y0104355D01*
X0063504Y0103648D02*
X0062796Y0103648D01*
X0062796Y0102940D02*
X0063504Y0102940D01*
X0063504Y0102233D02*
X0062796Y0102233D01*
X0062796Y0101526D02*
X0053772Y0101526D01*
X0053772Y0101053D02*
X0053372Y0100086D01*
X0052632Y0099346D01*
X0051665Y0098946D01*
X0050619Y0098946D01*
X0049652Y0099346D01*
X0048913Y0100086D01*
X0048512Y0101053D01*
X0048512Y0102099D01*
X0048913Y0103066D01*
X0049652Y0103805D01*
X0050619Y0104206D01*
X0051665Y0104206D01*
X0052632Y0103805D01*
X0053372Y0103066D01*
X0053772Y0102099D01*
X0053772Y0101053D01*
X0053675Y0100819D02*
X0058861Y0100819D01*
X0059047Y0100112D02*
X0053382Y0100112D01*
X0052690Y0099405D02*
X0059369Y0099405D01*
X0059871Y0098697D02*
X0015405Y0098697D01*
X0016112Y0099405D02*
X0023610Y0099405D01*
X0023668Y0099346D02*
X0024635Y0098946D01*
X0025681Y0098946D01*
X0026648Y0099346D01*
X0027387Y0100086D01*
X0027788Y0101053D01*
X0027788Y0102099D01*
X0027387Y0103066D01*
X0026648Y0103805D01*
X0025681Y0104206D01*
X0024635Y0104206D01*
X0023668Y0103805D01*
X0022928Y0103066D01*
X0022528Y0102099D01*
X0022528Y0101053D01*
X0022928Y0100086D01*
X0023668Y0099346D01*
X0022918Y0100112D02*
X0016473Y0100112D01*
X0016765Y0100819D02*
X0022625Y0100819D01*
X0022528Y0101526D02*
X0016780Y0101526D01*
X0016780Y0102233D02*
X0022584Y0102233D01*
X0022876Y0102940D02*
X0016514Y0102940D01*
X0016212Y0103648D02*
X0023510Y0103648D01*
X0026805Y0103648D02*
X0037293Y0103648D01*
X0037583Y0103357D02*
X0038717Y0103357D01*
X0039518Y0104159D01*
X0039518Y0105292D01*
X0038717Y0106094D01*
X0037583Y0106094D01*
X0036782Y0105292D01*
X0036782Y0104159D01*
X0037583Y0103357D01*
X0036782Y0104355D02*
X0015505Y0104355D01*
X0014219Y0105062D02*
X0036782Y0105062D01*
X0037259Y0105769D02*
X0010004Y0105769D01*
X0010004Y0105062D02*
X0012081Y0105062D01*
X0010795Y0104355D02*
X0010004Y0104355D01*
X0010004Y0106476D02*
X0054813Y0106476D01*
X0054813Y0107183D02*
X0010004Y0107183D01*
X0010004Y0107891D02*
X0035400Y0107891D01*
X0035282Y0108009D02*
X0036083Y0107208D01*
X0037217Y0107208D01*
X0038018Y0108009D01*
X0038018Y0109142D01*
X0037217Y0109944D01*
X0036083Y0109944D01*
X0035282Y0109142D01*
X0035282Y0108009D01*
X0035282Y0108598D02*
X0015305Y0108598D01*
X0016013Y0109305D02*
X0035444Y0109305D01*
X0037856Y0109305D02*
X0038444Y0109305D01*
X0038282Y0108598D02*
X0038018Y0108598D01*
X0037900Y0107891D02*
X0038400Y0107891D01*
X0039041Y0105769D02*
X0055290Y0105769D01*
X0055325Y0107891D02*
X0040900Y0107891D01*
X0039518Y0105062D02*
X0060540Y0105062D01*
X0059787Y0104355D02*
X0039518Y0104355D01*
X0039007Y0103648D02*
X0049495Y0103648D01*
X0048861Y0102940D02*
X0027439Y0102940D01*
X0027732Y0102233D02*
X0048568Y0102233D01*
X0048512Y0101526D02*
X0027788Y0101526D01*
X0027691Y0100819D02*
X0048609Y0100819D01*
X0048902Y0100112D02*
X0027398Y0100112D01*
X0026706Y0099405D02*
X0049594Y0099405D01*
X0053716Y0102233D02*
X0058846Y0102233D01*
X0059015Y0102940D02*
X0053424Y0102940D01*
X0052790Y0103648D02*
X0059319Y0103648D01*
X0063504Y0101930D02*
X0063504Y0101221D01*
X0066296Y0101221D01*
X0066296Y0101930D01*
X0063504Y0101930D01*
X0063504Y0101526D02*
X0066296Y0101526D01*
X0066296Y0105062D02*
X0065760Y0105062D01*
X0066296Y0105769D02*
X0064335Y0105769D01*
X0066296Y0107891D02*
X0057038Y0107891D01*
X0065305Y0108598D02*
X0066296Y0108598D01*
X0066296Y0118498D02*
X0065205Y0118498D01*
X0065913Y0119205D02*
X0066094Y0119205D01*
X0066194Y0129106D02*
X0065813Y0129106D01*
X0050464Y0132642D02*
X0046920Y0132642D01*
X0046920Y0133349D02*
X0050089Y0133349D01*
X0050089Y0134056D02*
X0046620Y0134056D01*
X0046304Y0134763D02*
X0050702Y0134763D01*
X0040863Y0134763D02*
X0035109Y0134763D01*
X0035109Y0134056D02*
X0040546Y0134056D01*
X0040246Y0133349D02*
X0034653Y0133349D01*
X0034576Y0135470D02*
X0040246Y0135470D01*
X0029143Y0126984D02*
X0019046Y0126984D01*
X0019754Y0126277D02*
X0028436Y0126277D01*
X0028435Y0125570D02*
X0019754Y0125570D01*
X0019474Y0124863D02*
X0028716Y0124863D01*
X0011600Y0124863D02*
X0010004Y0124863D01*
X0010004Y0124156D02*
X0010596Y0124156D01*
X0010004Y0128399D02*
X0011335Y0128399D01*
X0010487Y0129106D02*
X0010106Y0129106D01*
X0010004Y0114962D02*
X0011840Y0114962D01*
X0010696Y0114255D02*
X0010004Y0114255D01*
X0010004Y0108598D02*
X0010995Y0108598D01*
X0010806Y0174365D02*
X0010004Y0174365D01*
X0056479Y0179315D02*
X0060277Y0179315D01*
X0060984Y0178608D02*
X0056762Y0178608D01*
X0064435Y0184972D02*
X0066296Y0184972D01*
X0066296Y0184265D02*
X0065594Y0184265D01*
X0065216Y0188508D02*
X0066296Y0188508D01*
X0066084Y0189215D02*
X0065923Y0189215D01*
M02*
